<svg id="Layer_1" data-name="Layer 1" xmlns="http://www.w3.org/2000/svg" viewBox="0 0 1189.03 972.07"><defs><style>.cls-1{fill:#fff;}</style></defs><title>Artboard 1</title><rect class="cls-1" x="218.05" y="189.88" width="83.97" height="592.31" rx="12.11"/><rect class="cls-1" x="351.85" y="189.87" width="83.97" height="414.77" rx="12.11"/><rect class="cls-1" x="351.85" y="676.95" width="83.97" height="105.23" rx="12.11"/><rect class="cls-1" x="485.63" y="189.87" width="83.97" height="592.31" rx="12.11"/><rect class="cls-1" x="619.43" y="189.87" width="83.97" height="414.77" rx="12.11"/><rect class="cls-1" x="619.43" y="676.95" width="83.97" height="105.23" rx="12.11"/><rect class="cls-1" x="753.21" y="189.87" width="83.97" height="414.77" rx="12.11"/><rect class="cls-1" x="753.21" y="676.95" width="83.97" height="105.23" rx="12.11"/><rect class="cls-1" x="887.01" y="189.88" width="83.97" height="592.31" rx="12.11"/><path class="cls-1" d="M71.86,215.44H12.11A12.12,12.12,0,0,1,0,203.32V12.11A12.11,12.11,0,0,1,12.11,0H203.32a12.12,12.12,0,0,1,12.12,12.11V71.86A12.12,12.12,0,0,1,203.32,84H96.09A12.12,12.12,0,0,0,84,96.09V203.32A12.12,12.12,0,0,1,71.86,215.44Z"/><path class="cls-1" d="M1176.92,215.44h-59.75a12.12,12.12,0,0,1-12.11-12.12V96.09A12.12,12.12,0,0,0,1092.94,84H985.71A12.11,12.11,0,0,1,973.6,71.86V12.11A12.11,12.11,0,0,1,985.71,0h191.21A12.11,12.11,0,0,1,1189,12.11V203.32A12.12,12.12,0,0,1,1176.92,215.44Z"/><path class="cls-1" d="M1176.92,972.07H985.71A12.11,12.11,0,0,1,973.6,960V900.21a12.11,12.11,0,0,1,12.11-12.11h107.23A12.12,12.12,0,0,0,1105.06,876V768.75a12.12,12.12,0,0,1,12.11-12.12h59.75A12.12,12.12,0,0,1,1189,768.75V960A12.11,12.11,0,0,1,1176.92,972.07Z"/><path class="cls-1" d="M203.32,972.07H12.11A12.11,12.11,0,0,1,0,960V768.75a12.12,12.12,0,0,1,12.11-12.12H71.86A12.12,12.12,0,0,1,84,768.75V876A12.12,12.12,0,0,0,96.09,888.1H203.32a12.12,12.12,0,0,1,12.12,12.11V960A12.12,12.12,0,0,1,203.32,972.07Z"/></svg>