<?xml version="1.0" encoding="UTF-8"?>
<svg version="1.1" xmlns="http://www.w3.org/2000/svg" width="3568" height="2918">
<path d="M0 0 C1.16576245 -0.00445668 1.16576245 -0.00445668 2.35507566 -0.0090034 C4.95574764 -0.01766552 7.55637346 -0.01919655 10.15705872 -0.02069092 C12.02332151 -0.02532088 13.88958336 -0.03034579 15.75584412 -0.03573608 C20.8242393 -0.04884564 25.89262124 -0.05530233 30.96103072 -0.05974674 C34.12958373 -0.06268005 37.29813314 -0.06678536 40.46668434 -0.07125092 C50.38615025 -0.08492259 60.3056079 -0.09459063 70.22508258 -0.09845281 C81.66469704 -0.10293165 93.10419191 -0.12047291 104.54377002 -0.1494534 C113.39321326 -0.1710917 122.24262292 -0.18115825 131.09209234 -0.18249393 C136.37411653 -0.18354049 141.65602825 -0.18941666 146.93802452 -0.20731354 C151.90962078 -0.22383113 156.88102046 -0.22593181 161.85263443 -0.21717453 C163.67224594 -0.21640611 165.49186819 -0.22072106 167.31145287 -0.23063278 C181.67093116 -0.3042335 193.29016053 0.78009405 204.19148254 10.99200439 C210.94536334 18.20572388 214.33862081 26.38408065 214.34100921 36.27331929 C214.34501378 37.80441701 214.34501378 37.80441701 214.34909925 39.36644601 C214.34694477 40.4839989 214.3447903 41.60155179 214.34257054 42.75296992 C214.34422132 43.94975533 214.3458721 45.14654074 214.3475729 46.37959237 C214.35115747 49.71850925 214.35024062 53.05737112 214.34747112 56.39628524 C214.34555246 60.03589342 214.34942839 63.67549616 214.35256791 67.31510285 C214.35728845 73.72425384 214.35826435 80.13339712 214.35683957 86.54254957 C214.35472227 96.13737908 214.35832634 105.73220057 214.36305434 115.32702885 C214.37093662 131.67738395 214.37401683 148.02773687 214.37450027 164.37809372 C214.37500222 180.95470473 214.37764459 197.5313133 214.38290787 214.10792351 C214.383238 215.15372065 214.38356813 216.19951778 214.38390827 217.27700574 C214.38525823 221.53616816 214.38662089 225.79533057 214.38800038 230.05449298 C214.40431417 280.51283853 214.41069028 330.97118362 214.41544825 381.42953136 C214.41783016 406.54730276 214.42153336 431.66507389 214.42548534 456.78284508 C214.43815035 537.32216165 214.44893456 617.8614782 214.4523258 698.40079575 C214.45248804 702.25115591 214.4526536 706.10151608 214.45282019 709.95187624 C214.45315399 717.67403725 214.45348447 725.39619826 214.45381474 733.11835927 C214.45420165 742.15943708 214.45459125 751.20051489 214.45498581 760.2415927 C214.45509823 762.82923788 214.45520965 765.41688305 214.45532006 768.00452822 C214.45887041 851.13178502 214.47395224 934.25903318 214.49725781 1017.38628668 C214.51399469 1077.10829484 214.52947247 1136.83030137 214.53399277 1196.5523119 C214.53408625 1197.7799831 214.53417974 1199.00765429 214.53427606 1200.27252765 C214.53629491 1227.2202733 214.53745112 1254.16801892 214.53780464 1281.11576464 C214.53794082 1290.75770558 214.53814982 1300.39964653 214.5383979 1310.04158747 C214.53845946 1312.44034523 214.53851778 1314.839103 214.53857285 1317.23786076 C214.5394934 1355.4917234 214.54947043 1393.74557703 214.56403033 1431.9994367 C214.57863286 1470.51935305 214.58369651 1509.03925834 214.57561079 1547.55917696 C214.57449536 1552.87810295 214.57348471 1558.19702895 214.57253647 1563.51595497 C214.57225152 1565.07998695 214.57225152 1565.07998695 214.57196081 1566.67561553 C214.56922359 1583.20789054 214.57658055 1599.74014514 214.58810984 1616.27241571 C214.5992287 1632.51565101 214.59970392 1648.75885736 214.58873965 1665.00209309 C214.58262809 1674.53330765 214.58477806 1684.06443503 214.59899162 1693.59564144 C214.60760747 1699.9199311 214.60540808 1706.24415639 214.59429291 1712.56844203 C214.58829175 1716.15722234 214.58698537 1719.74583132 214.59897777 1723.33460047 C214.61175852 1727.19020801 214.60134475 1731.0455557 214.5886662 1734.90116805 C214.59977895 1736.55956682 214.59977895 1736.55956682 214.61111619 1738.2514686 C214.52948149 1750.02242987 211.48112437 1759.45120268 203.36335754 1768.11700439 C195.16860287 1775.78938427 186.47706416 1778.29414565 175.42984009 1778.28088379 C174.26407764 1778.28534047 174.26407764 1778.28534047 173.07476443 1778.28988719 C170.47409245 1778.29854931 167.87346663 1778.30008034 165.27278137 1778.30157471 C163.40651858 1778.30620467 161.54025673 1778.31122958 159.67399597 1778.31661987 C154.60560079 1778.32972943 149.53721885 1778.33618612 144.46880937 1778.34063053 C141.30025636 1778.34356383 138.13170694 1778.34766915 134.96315575 1778.3521347 C125.04368984 1778.36580638 115.12423218 1778.37547442 105.20475751 1778.3793366 C93.76514305 1778.38381544 82.32564818 1778.4013567 70.88607007 1778.43033719 C62.03662682 1778.45197549 53.18721717 1778.46204204 44.33774775 1778.46337771 C39.05572356 1778.46442428 33.77381184 1778.47030045 28.49181557 1778.48819733 C23.52021931 1778.50471492 18.54881963 1778.5068156 13.57720566 1778.49805832 C11.75759414 1778.4972899 9.9379719 1778.50160485 8.11838722 1778.51151657 C-6.24109107 1778.58511729 -17.86032044 1777.50078974 -28.76164246 1767.28887939 C-35.11916456 1760.49850473 -38.90840598 1752.48105238 -38.9116418 1743.12744698 C-38.91441711 1742.10799648 -38.91719243 1741.08854598 -38.92005184 1740.03820304 C-38.9180155 1738.9169409 -38.91597917 1737.79567876 -38.91388112 1736.64043897 C-38.91565613 1735.44366703 -38.91743114 1734.24689508 -38.91925994 1733.01385732 C-38.92319537 1729.67030909 -38.92262086 1726.32681518 -38.92020224 1722.98326901 C-38.91866448 1719.34036303 -38.92291298 1715.69746311 -38.926429 1712.05455914 C-38.93181253 1705.63803319 -38.93344483 1699.22151457 -38.93267826 1692.80498653 C-38.93154493 1683.19908512 -38.93611725 1673.59319228 -38.9418091 1663.9872928 C-38.95133127 1647.61842979 -38.95603002 1631.24956848 -38.95811844 1614.88070297 C-38.9602452 1598.28432017 -38.96450087 1581.68794 -38.97136116 1565.09155846 C-38.97179177 1564.04467061 -38.97222239 1562.99778276 -38.97266605 1561.91917104 C-38.97442435 1557.65559075 -38.97619399 1553.39201046 -38.97797907 1549.12843018 C-38.99959097 1497.40876417 -39.01045949 1445.68909763 -39.01945531 1393.96942813 C-39.02238827 1377.20103553 -39.02575801 1360.43264306 -39.02942252 1343.66425061 C-39.02968081 1342.4816785 -39.0299391 1341.29910639 -39.03020522 1340.08069876 C-39.03125142 1335.2966588 -39.03229984 1330.51261884 -39.03335104 1325.72857887 C-39.05131617 1243.89786376 -39.06669635 1162.06714844 -39.07411008 1080.23643164 C-39.07469405 1073.80728917 -39.07529132 1067.3781467 -39.07588769 1060.94900424 C-39.07600581 1059.6736483 -39.07612393 1058.39829237 -39.07624563 1057.08428929 C-39.07744304 1044.16283551 -39.07865179 1031.24138173 -39.07987816 1018.31992795 C-39.0801234 1015.7291102 -39.08036725 1013.13829245 -39.08060973 1010.54747471 C-39.08840102 927.32336373 -39.11078759 844.09926684 -39.14328616 760.87516202 C-39.16662582 701.08553522 -39.18818067 641.29591122 -39.19529247 581.50627995 C-39.19543949 580.2771633 -39.19558651 579.04804664 -39.19573799 577.78168404 C-39.19892253 550.80188832 -39.20097362 523.82209263 -39.20196554 496.84229675 C-39.20238029 485.98720623 -39.20293519 475.13211573 -39.20352745 464.27702522 C-39.20358812 463.08898039 -39.20364879 461.90093556 -39.20371129 460.67688937 C-39.20572875 422.37932804 -39.21997796 384.08178333 -39.24047245 345.78422781 C-39.26103739 307.21833144 -39.26895584 268.6524543 -39.25939469 230.086553 C-39.25807618 224.76074628 -39.25689815 219.43493954 -39.25580406 214.10913277 C-39.25558421 213.06509908 -39.25536437 212.0210654 -39.25513785 210.94539433 C-39.25202 194.39452881 -39.26236375 177.84369998 -39.27827961 161.29284296 C-39.29364097 145.02964811 -39.29480501 128.76650417 -39.28073138 112.50330757 C-39.27290386 102.96143048 -39.2760831 93.41970866 -39.29536854 83.87784698 C-39.30707962 77.54521334 -39.30435035 71.21269345 -39.2897539 64.88006602 C-39.28188075 61.287318 -39.28024183 57.69487436 -39.29637293 54.10214708 C-39.3135731 50.24057792 -39.29978381 46.37946789 -39.28302461 42.51788896 C-39.29294198 41.41336202 -39.30285936 40.30883507 -39.31307726 39.17083761 C-39.20401997 27.29177247 -35.38463191 17.97795846 -27.16007996 9.45684814 C-19.31589033 2.17555175 -10.47494667 -0.01257486 0 0 Z " fill="#FFFFFF" transform="translate(2699.7850799560547,569.8595581054688)"/>
<path d="M0 0 C0.78040409 -0.00297112 1.56080819 -0.00594224 2.36486089 -0.0090034 C4.98245839 -0.01768169 7.6000101 -0.01919793 10.21762085 -0.02069092 C12.09358823 -0.02531979 13.96955467 -0.03034455 15.84552002 -0.03573608 C20.94496516 -0.04885743 26.04439714 -0.05530481 31.14385653 -0.05974674 C34.33133273 -0.06267856 37.51880535 -0.06678363 40.70627975 -0.07125092 C50.68341417 -0.08492662 60.66054037 -0.0945923 70.63768351 -0.09845281 C82.14635834 -0.10293056 93.65491422 -0.12046504 105.16355288 -0.1494534 C114.06393095 -0.17109182 122.96427561 -0.18115828 131.86467969 -0.18249393 C137.17801764 -0.18354062 142.49124379 -0.18941937 147.80455399 -0.20731354 C152.80650534 -0.223831 157.8082613 -0.22593187 162.81023026 -0.21717453 C164.64112879 -0.21640606 166.47203798 -0.22072169 168.30290985 -0.23063278 C182.46435398 -0.30276614 194.31366303 0.61707596 205.05111694 10.80450439 C213.89338703 20.51105652 215.60238318 31.38691203 215.55021036 44.10928935 C215.55326345 45.30814747 215.55631655 46.50700559 215.55946216 47.74219274 C215.56591715 51.0729898 215.56342273 54.40356274 215.55717043 57.73434578 C215.55256055 61.37029315 215.55958183 65.00622144 215.56510407 68.64216498 C215.57321219 75.0402041 215.57386306 81.43821073 215.56969218 87.83625313 C215.5634824 97.41444171 215.56876444 106.99260043 215.57628959 116.57078684 C215.58876989 132.89405493 215.59169993 149.21731242 215.58945465 165.54058456 C215.58720734 182.08691434 215.58926835 198.63323512 215.59659958 215.17956352 C215.59728854 216.74610636 215.59728854 216.74610636 215.59799142 218.34429653 C215.59987465 222.59769943 215.60178602 226.85110232 215.6037338 231.10450519 C215.62403401 275.49948109 215.63014619 319.89445194 215.63131802 364.28943195 C215.63144751 369.06960378 215.63158339 373.8497756 215.63172483 378.62994742 C215.63175884 379.81612305 215.63179285 381.00229868 215.63182789 382.22441902 C215.63264443 408.49733245 215.63702305 434.77024492 215.64203652 461.04315784 C215.6440932 471.85774543 215.64607325 482.67233305 215.64806902 493.48692065 C215.6482902 494.68180062 215.64851138 495.87668058 215.64873926 497.10776902 C215.66138948 565.59100672 215.66963727 634.07424379 215.66872215 702.55748272 C215.6686906 705.12098425 215.66865912 707.68448578 215.66862774 710.24798732 C215.66848097 721.82227877 215.66830463 733.39657021 215.66811997 744.97086166 C215.66803772 750.13225333 215.66795743 755.293645 215.66787734 760.45503667 C215.66783655 763.03840773 215.66779451 765.62177879 215.66775122 768.20514985 C215.66639058 849.90323311 215.68102715 931.60129904 215.70883179 1013.29937744 C215.71583365 1033.884146 215.7227725 1054.46891458 215.72936058 1075.05368328 C215.72976633 1076.32111694 215.73017208 1077.58855061 215.73059012 1078.89439135 C215.74301717 1117.94851657 215.75055067 1157.00264036 215.75307655 1196.05676746 C215.75315645 1197.28264483 215.75323636 1198.5085222 215.75331868 1199.77154737 C215.75502511 1226.68059879 215.75554766 1253.58965013 215.75497793 1280.4987016 C215.75478495 1290.12690383 215.75468087 1299.75510606 215.75462047 1309.3833083 C215.75460464 1311.7786213 215.75458423 1314.17393431 215.75455922 1316.56924732 C215.75420637 1354.75870988 215.76561088 1392.94815761 215.78286685 1431.13761592 C215.80015549 1469.59480496 215.80455889 1508.05197346 215.79134421 1546.50916475 C215.78951956 1551.82088145 215.78783302 1557.13259819 215.78622818 1562.44431496 C215.78590801 1563.48557611 215.78558783 1564.52683727 215.78525795 1565.5996518 C215.78054814 1582.10080576 215.78927586 1598.60192425 215.80357055 1615.10307155 C215.81733939 1631.32070927 215.81687894 1647.5382945 215.80118628 1663.75593105 C215.79240901 1673.26874949 215.79460105 1682.78141349 215.81291985 1692.29421921 C215.82399148 1698.61012135 215.82058452 1704.92590808 215.80535428 1711.2418013 C215.79712399 1714.82338416 215.79507069 1718.40466283 215.81085566 1721.98622723 C215.82769801 1725.83925252 215.81343503 1729.69181697 215.79630601 1733.54484862 C215.81100487 1735.18944808 215.81100487 1735.18944808 215.82600068 1736.86727176 C215.71591826 1748.74847448 212.81883206 1759.56685942 204.29721069 1768.14044189 C195.95002601 1775.61675889 187.61869794 1778.2904452 176.480896 1778.28761292 C175.31006657 1778.29312795 175.31006657 1778.29312795 174.11558402 1778.29875439 C171.50343072 1778.309756 168.89131725 1778.31362908 166.27914429 1778.31744385 C164.40465164 1778.32371119 162.53016023 1778.33035823 160.65567017 1778.33735657 C154.50233826 1778.35836819 148.34900619 1778.36875665 142.19564819 1778.37872314 C140.07449964 1778.38277186 137.95335121 1778.38688882 135.83220291 1778.39107323 C125.86521691 1778.41011899 115.89823828 1778.42435099 105.93123758 1778.4326852 C94.43952775 1778.44245389 82.94801072 1778.46876649 71.4563688 1778.50918609 C62.56529752 1778.53938172 53.6742814 1778.55415737 44.78315985 1778.55746621 C39.4770302 1778.55981284 34.17110668 1778.56872306 28.8650322 1778.59392738 C23.86958981 1778.61727325 18.87448832 1778.62141514 13.87900543 1778.611166 C12.05174498 1778.61067211 10.22446737 1778.61694911 8.39725876 1778.63072205 C-5.07121283 1778.72651322 -16.31150864 1777.66387934 -26.70278931 1768.14044189 C-32.53850907 1762.38596185 -37.38019825 1755.1829735 -37.82843027 1746.78703046 C-37.82873416 1745.90747568 -37.82903805 1745.0279209 -37.82935115 1744.12171295 C-37.83212646 1743.10097966 -37.83490178 1742.08024637 -37.83776119 1741.02858177 C-37.83572485 1739.90588299 -37.83368852 1738.78318421 -37.83159047 1737.62646425 C-37.83336548 1736.42817922 -37.83514049 1735.22989419 -37.83696929 1733.99529749 C-37.84090474 1730.64749942 -37.8403302 1727.29975561 -37.83791159 1723.95195961 C-37.83637384 1720.30443394 -37.84062232 1716.65691432 -37.84413835 1713.00939065 C-37.84952189 1706.58472472 -37.85115418 1700.16006611 -37.85038761 1693.7353981 C-37.84925428 1684.11732564 -37.85382659 1674.49926174 -37.85951845 1664.88119121 C-37.86904062 1648.4916257 -37.87373937 1632.1020619 -37.87582779 1615.7124939 C-37.87795455 1599.0951487 -37.88221021 1582.47780613 -37.88907051 1565.86046219 C-37.88950112 1564.81225398 -37.88993174 1563.76404577 -37.8903754 1562.68407368 C-37.8921337 1558.41511844 -37.89390334 1554.14616322 -37.89568842 1549.877208 C-37.91730019 1498.09269159 -37.92816876 1446.30817465 -37.93716466 1394.52365476 C-37.9400976 1377.73451355 -37.94346734 1360.94537247 -37.94713187 1344.1562314 C-37.94739016 1342.97220426 -37.94764845 1341.78817711 -37.94791457 1340.56827035 C-37.94896076 1335.7783513 -37.95000919 1330.98843226 -37.95106039 1326.19851321 C-37.96902537 1244.26800739 -37.98440566 1162.33750135 -37.99181943 1080.40699383 C-37.9924034 1073.97004301 -37.99300067 1067.53309219 -37.99359704 1061.09614138 C-37.99371516 1059.81923581 -37.99383328 1058.54233024 -37.99395498 1057.22673056 C-37.99515239 1044.2895642 -37.99636115 1031.35239784 -37.99758751 1018.41523148 C-37.99783275 1015.82126218 -37.9980766 1013.22729289 -37.99831908 1010.63332359 C-38.00611063 927.30529485 -38.02849784 843.97728019 -38.06099551 760.6492576 C-38.08433458 700.78485732 -38.10588972 640.92045982 -38.11300182 581.05605507 C-38.11314884 579.82545302 -38.11329587 578.59485096 -38.11344734 577.32695794 C-38.11663185 550.31483558 -38.11868296 523.30271325 -38.11967489 496.29059072 C-38.12008964 485.42256447 -38.12064454 474.55453823 -38.1212368 463.68651199 C-38.12129747 462.49704991 -38.12135814 461.30758783 -38.12142065 460.08208144 C-38.12343825 421.73610698 -38.13768849 383.39014911 -38.1581818 345.04418045 C-38.17874485 306.43089301 -38.18666617 267.81762478 -38.17710404 229.20433241 C-38.17578552 223.87249762 -38.17460749 218.54066281 -38.17351341 213.20882797 C-38.17329356 212.16360868 -38.17307372 211.11838939 -38.17284721 210.04149678 C-38.16972883 193.46899545 -38.1800751 176.89653075 -38.19598896 160.32403791 C-38.21134685 144.04128779 -38.21251762 127.75858852 -38.19844073 111.47583666 C-38.19061057 101.92136664 -38.19379981 92.36705167 -38.21307789 82.81259704 C-38.22478262 76.47289755 -38.22206712 70.13331174 -38.20746325 63.79361849 C-38.19958451 60.19603353 -38.19796698 56.59875268 -38.21408228 53.00118835 C-38.23125809 49.13614702 -38.21750669 45.27156555 -38.20073396 41.40651453 C-38.21065133 40.2981602 -38.22056871 39.18980587 -38.23078661 38.04786504 C-38.12699402 26.75507934 -34.19290207 17.95774558 -26.64028931 9.57794189 C-19.31561488 2.42766448 -9.91941721 -0.01179676 0 0 Z " fill="#FFFFFF" transform="translate(1494.7027893066406,569.8595581054688)"/>
<path d="M0 0 C1.16576245 -0.00445668 1.16576245 -0.00445668 2.35507566 -0.0090034 C4.95574764 -0.01766552 7.55637346 -0.01919655 10.15705872 -0.02069092 C12.02332151 -0.02532088 13.88958336 -0.03034579 15.75584412 -0.03573608 C20.8242393 -0.04884564 25.89262124 -0.05530233 30.96103072 -0.05974674 C34.12958373 -0.06268005 37.29813314 -0.06678536 40.46668434 -0.07125092 C50.38615025 -0.08492259 60.3056079 -0.09459063 70.22508258 -0.09845281 C81.66469704 -0.10293165 93.10419191 -0.12047291 104.54377002 -0.1494534 C113.39321326 -0.1710917 122.24262292 -0.18115825 131.09209234 -0.18249393 C136.37411653 -0.18354049 141.65602825 -0.18941666 146.93802452 -0.20731354 C151.90962078 -0.22383113 156.88102046 -0.22593181 161.85263443 -0.21717453 C163.67224594 -0.21640611 165.49186819 -0.22072106 167.31145287 -0.23063278 C181.67093116 -0.3042335 193.29016053 0.78009405 204.19148254 10.99200439 C210.54900464 17.78237906 214.33824607 25.79983141 214.34148188 35.15343681 C214.3442572 36.17288731 214.34703251 37.19233781 214.34989193 38.24268075 C214.34785559 39.36394289 214.34581925 40.48520503 214.34372121 41.64044482 C214.34549622 42.83721676 214.34727123 44.03398871 214.34910003 45.26702647 C214.35303546 48.6105747 214.35246095 51.95406861 214.35004233 55.29761478 C214.34850457 58.94052076 214.35275306 62.58342068 214.35626909 66.22632465 C214.36165261 72.6428506 214.36328491 79.05936922 214.36251835 85.47589726 C214.36138502 95.08179867 214.36595734 104.68769151 214.37164919 114.29359099 C214.38117136 130.662454 214.3858701 147.03131531 214.38795853 163.40018082 C214.39008529 179.99656362 214.39434096 196.59294379 214.40120125 213.18932533 C214.40163186 214.23621318 214.40206248 215.28310103 214.40250614 216.36171275 C214.40426444 220.62529304 214.40603408 224.88887333 214.40781916 229.15245361 C214.42943106 280.87211962 214.44029958 332.59178616 214.4492954 384.31145566 C214.45222835 401.07984826 214.4555981 417.84824073 214.45926261 434.61663318 C214.4595209 435.79920529 214.45977919 436.9817774 214.46004531 438.20018503 C214.4610915 442.98422499 214.46213993 447.76826495 214.46319113 452.55230492 C214.48115625 534.38302003 214.49653644 616.21373535 214.50395016 698.04445215 C214.50453414 704.47359462 214.50513141 710.90273709 214.50572778 717.33187955 C214.50590496 719.24491345 214.50590496 719.24491345 214.50608572 721.1965945 C214.50728313 734.11804828 214.50849188 747.03950206 214.50971825 759.96095584 C214.50996348 762.55177359 214.51020734 765.14259133 214.51044982 767.73340908 C214.51824111 850.95752006 214.54062768 934.18161695 214.57312625 1017.40572177 C214.59646591 1077.19534857 214.61802076 1136.98497257 214.62513256 1196.77460384 C214.62527958 1198.00372049 214.6254266 1199.23283714 214.62557808 1200.49919975 C214.62876262 1227.47899547 214.63081371 1254.45879116 214.63180563 1281.43858704 C214.63222038 1292.29367756 214.63277528 1303.14876806 214.63336754 1314.00385857 C214.63342821 1315.1919034 214.63348888 1316.37994823 214.63355138 1317.60399442 C214.63556884 1355.90155575 214.64981805 1394.19910046 214.67031254 1432.49665598 C214.69087748 1471.06255235 214.69879593 1509.62842949 214.68923478 1548.19433079 C214.68791626 1553.52013751 214.68673824 1558.84594425 214.68564415 1564.17175102 C214.6854243 1565.2157847 214.68520445 1566.25981839 214.68497794 1567.33548945 C214.68186008 1583.88635498 214.69220384 1600.43718381 214.7081197 1616.98804083 C214.72348105 1633.25123568 214.7246451 1649.51437962 214.71057146 1665.77757622 C214.70274394 1675.31945331 214.70592318 1684.86117513 214.72520863 1694.4030368 C214.73691971 1700.73567045 214.73419043 1707.06819034 214.71959398 1713.40081777 C214.71172084 1716.99356579 214.71008191 1720.58600943 214.72621302 1724.17873671 C214.74341319 1728.04030587 214.7296239 1731.9014159 214.7128647 1735.76299483 C214.72278207 1736.86752177 214.73269944 1737.97204872 214.74291735 1739.11004618 C214.63386005 1750.98911132 210.814472 1760.30292533 202.58992004 1768.82403564 C194.74573042 1776.10533204 185.90478675 1778.29345865 175.42984009 1778.28088379 C174.26407764 1778.28534047 174.26407764 1778.28534047 173.07476443 1778.28988719 C170.47409245 1778.29854931 167.87346663 1778.30008034 165.27278137 1778.30157471 C163.40651858 1778.30620467 161.54025673 1778.31122958 159.67399597 1778.31661987 C154.60560079 1778.32972943 149.53721885 1778.33618612 144.46880937 1778.34063053 C141.30025636 1778.34356383 138.13170694 1778.34766915 134.96315575 1778.3521347 C125.04368984 1778.36580638 115.12423218 1778.37547442 105.20475751 1778.3793366 C93.76514305 1778.38381544 82.32564818 1778.4013567 70.88607007 1778.43033719 C62.03662682 1778.45197549 53.18721717 1778.46204204 44.33774775 1778.46337771 C39.05572356 1778.46442428 33.77381184 1778.47030045 28.49181557 1778.48819733 C23.52021931 1778.50471492 18.54881963 1778.5068156 13.57720566 1778.49805832 C11.75759414 1778.4972899 9.9379719 1778.50160485 8.11838722 1778.51151657 C-6.24109107 1778.58511729 -17.86032044 1777.50078974 -28.76164246 1767.28887939 C-35.51552325 1760.07515991 -38.90878073 1751.89680314 -38.91116913 1742.0075645 C-38.91383884 1740.98683269 -38.91650855 1739.96610087 -38.91925916 1738.91443778 C-38.91710469 1737.79688489 -38.91495021 1736.679332 -38.91273046 1735.52791387 C-38.91438123 1734.33112846 -38.91603201 1733.13434305 -38.91773282 1731.90129142 C-38.92131738 1728.56237454 -38.92040053 1725.22351267 -38.91763103 1721.88459855 C-38.91571237 1718.24499037 -38.9195883 1714.60538763 -38.92272782 1710.96578094 C-38.92744836 1704.55662995 -38.92842426 1698.14748667 -38.92699948 1691.73833422 C-38.92488218 1682.1435047 -38.92848625 1672.54868321 -38.93321425 1662.95385494 C-38.94109653 1646.60349984 -38.94417675 1630.25314692 -38.94466019 1613.90279007 C-38.94516213 1597.32617906 -38.9478045 1580.74957049 -38.95306778 1564.17296028 C-38.95339791 1563.12716314 -38.95372805 1562.08136601 -38.95406818 1561.00387805 C-38.95541814 1556.74471563 -38.9567808 1552.48555322 -38.95816029 1548.22639081 C-38.97447408 1497.76804526 -38.9808502 1447.30970017 -38.98560816 1396.85135243 C-38.98799007 1371.73358103 -38.99169327 1346.6158099 -38.99564526 1321.49803871 C-39.00831026 1240.95872214 -39.01909447 1160.41940559 -39.02248571 1079.88008804 C-39.02264796 1076.02972788 -39.02281352 1072.17936771 -39.0229801 1068.32900755 C-39.0233139 1060.60684654 -39.02364438 1052.88468553 -39.02397466 1045.16252452 C-39.02436156 1036.12144671 -39.02475117 1027.0803689 -39.02514572 1018.03929109 C-39.02525814 1015.45164591 -39.02536956 1012.86400074 -39.02547998 1010.27635556 C-39.02903032 927.14909877 -39.04411216 844.02185061 -39.06741772 760.89459711 C-39.0841546 701.17258895 -39.09963238 641.45058242 -39.10415268 581.72857189 C-39.10429291 579.88706509 -39.10429291 579.88706509 -39.10443597 578.00835614 C-39.10645482 551.06061049 -39.10761103 524.11286487 -39.10796456 497.16511915 C-39.10810073 487.52317821 -39.10830973 477.88123726 -39.10855781 468.23929632 C-39.10861937 465.84053855 -39.10867769 463.44178079 -39.10873276 461.04302303 C-39.10965331 422.78916039 -39.11963035 384.53530676 -39.13419024 346.28144708 C-39.14879277 307.76153074 -39.15385642 269.24162545 -39.1457707 230.72170683 C-39.14465527 225.40278084 -39.14364462 220.08385484 -39.14269638 214.76492882 C-39.14250641 213.72224083 -39.14231644 212.67955285 -39.14212072 211.60526826 C-39.1393835 195.07299325 -39.14674047 178.54073865 -39.15826975 162.00846808 C-39.16938862 145.76523278 -39.16986384 129.52202643 -39.15889956 113.27879069 C-39.152788 103.74757614 -39.15493797 94.21644876 -39.16915154 84.68524235 C-39.17776738 78.36095269 -39.17556799 72.0367274 -39.16445282 65.71244176 C-39.15845166 62.12366145 -39.15714528 58.53505247 -39.16913769 54.94628332 C-39.18191844 51.09067578 -39.17150466 47.23532809 -39.15882611 43.37971574 C-39.16623461 42.27411656 -39.17364311 41.16851738 -39.1812761 40.02941519 C-39.0996414 28.25845391 -36.05128428 18.82968111 -27.93351746 10.16387939 C-19.73876278 2.49149952 -11.04722407 -0.01326186 0 0 Z " fill="#FFFFFF" transform="translate(692.7850799560547,569.8595581054688)"/>
<path d="M0 0 C1.17082943 -0.00551503 1.17082943 -0.00551503 2.36531198 -0.01114148 C4.97746528 -0.02214308 7.58957875 -0.02601617 10.20175171 -0.02983093 C12.07624436 -0.03609827 13.95073577 -0.04274531 15.82522583 -0.04974365 C21.97855774 -0.07075528 28.13188981 -0.08114374 34.2852478 -0.09111023 C36.40639636 -0.09515895 38.52754479 -0.09927591 40.64869308 -0.10346031 C50.61567909 -0.12250607 60.58265772 -0.13673807 70.54965842 -0.14507228 C82.04136825 -0.15484098 93.53288528 -0.18115358 105.02452719 -0.22157317 C113.91559847 -0.25176881 122.80661459 -0.26654445 131.69773614 -0.26985329 C137.00386579 -0.27219993 142.30978932 -0.28111014 147.6158638 -0.30631447 C152.61130619 -0.32966034 157.60640768 -0.33380223 162.60189056 -0.32355309 C164.42915102 -0.32305919 166.25642863 -0.3293362 168.08363724 -0.34310913 C182.46846757 -0.44541768 193.68139101 1.15511072 204.7461853 11.27217102 C211.99485972 18.71371482 214.33912792 27.15277114 214.31248647 37.2423864 C214.31426148 38.07041744 214.31603649 38.89844848 214.31786529 39.75157136 C214.32262831 42.54988204 214.32022671 45.34814167 214.31790638 48.14645481 C214.31985837 50.17213141 214.32224685 52.19780762 214.32503435 54.22348323 C214.33145666 59.82927916 214.3315942 65.43506079 214.33075694 71.04085969 C214.330926 77.1247527 214.33682718 83.20864052 214.3419978 89.29253095 C214.35025173 99.96854324 214.35475047 110.64455137 214.35672379 121.32056618 C214.35885109 132.77934199 214.3631081 144.23811398 214.36996651 155.69688797 C214.37039712 156.41989723 214.37082773 157.14290649 214.3712714 157.88782512 C214.37302972 160.83240992 214.37479936 163.77699471 214.37658442 166.72157949 C214.39819224 202.43473345 214.40906431 238.14788817 214.41806066 273.86104718 C214.42099397 285.44070815 214.42436377 297.02036894 214.42802787 308.60002971 C214.42828616 309.41676771 214.42854445 310.23350571 214.42881057 311.07499335 C214.42985677 314.37913129 214.4309052 317.68326923 214.43195639 320.98740716 C214.44992152 377.50550792 214.46530122 434.02360896 214.47271542 490.54171217 C214.4732994 494.98182278 214.47389666 499.42193339 214.47449304 503.862044 C214.47467022 505.18322102 214.47467022 505.18322102 214.47485098 506.53108849 C214.47604838 515.45480448 214.47725714 524.37852048 214.47848351 533.30223647 C214.47872874 535.09147968 214.4789726 536.8807229 214.47921508 538.66996612 C214.48700554 596.139287 214.5093903 653.60858745 214.54189151 711.0778994 C214.56523411 752.36667994 214.58678743 793.65545641 214.59389782 834.94424343 C214.59404484 835.79319931 214.59419186 836.64215519 214.59434334 837.51683701 C214.59752802 856.15276729 214.59957901 874.78869753 214.60057089 893.42462805 C214.60098563 900.92282982 214.60154053 908.42103157 214.6021328 915.91923332 C214.60219347 916.73987292 214.60225413 917.56051252 214.60231664 918.40601999 C214.60433336 944.8502701 214.61857719 971.29449612 214.6390778 997.73873782 C214.65965178 1024.37205317 214.66755648 1051.00534066 214.65800004 1077.63866316 C214.65668156 1081.31832429 214.65550352 1084.99798544 214.65440941 1088.67764664 C214.65418956 1089.3989676 214.65396971 1090.12028857 214.6537432 1090.86346775 C214.65062786 1102.28888286 214.66095933 1113.71424473 214.67688496 1125.13964751 C214.69226321 1136.37216105 214.6930602 1147.60460166 214.67933672 1158.83712407 C214.67240893 1164.8467472 214.67187663 1170.85618686 214.68889681 1176.86579395 C214.70425142 1182.3316863 214.70123179 1187.79724699 214.68348653 1193.26312928 C214.68033372 1195.22938082 214.68390154 1197.19565742 214.69497828 1199.16188029 C214.76513851 1212.48248123 214.10229446 1223.47181842 205.1680603 1234.14326477 C198.40926161 1240.96858707 189.74642143 1245.43505578 180.0723874 1245.55306333 C179.34056758 1245.54705329 178.60874776 1245.54104324 177.85475159 1245.53485107 C177.05530115 1245.54023661 176.25585071 1245.54562215 175.4321745 1245.55117089 C172.77390795 1245.56539036 170.11614361 1245.55836172 167.45785522 1245.55122375 C165.54350893 1245.55693055 163.62916604 1245.56389601 161.71482849 1245.57202148 C156.52872939 1245.58993585 151.34279965 1245.58878747 146.15667892 1245.5830791 C141.82040422 1245.57998411 137.4841619 1245.58608331 133.14789182 1245.59211785 C122.91329482 1245.60615643 112.67878131 1245.6046079 102.44418335 1245.59321594 C91.9025043 1245.5817411 81.36107984 1245.59580134 70.81943434 1245.62261242 C61.75418982 1245.64480121 52.68902502 1245.65139945 43.62375528 1245.64553601 C38.21597307 1245.64217216 32.80835396 1245.64454325 27.40059471 1245.66178703 C22.31233496 1245.67730425 17.22445084 1245.67324765 12.13620567 1245.65448189 C10.27509124 1245.65080892 8.41394869 1245.65386654 6.55286026 1245.66436768 C-7.35493165 1245.73681399 -18.12555888 1244.78367507 -28.58584595 1234.63935852 C-36.63812831 1225.64223742 -39.14069658 1216.3205092 -39.06931436 1204.47173667 C-39.073894 1203.22672701 -39.073894 1203.22672701 -39.07856617 1201.95656563 C-39.08634574 1199.18161734 -39.07994234 1196.40688815 -39.0735836 1193.63193893 C-39.07627759 1191.6112718 -39.07984577 1189.59060568 -39.08420807 1187.56994146 C-39.09367512 1182.00133672 -39.09066247 1176.43279732 -39.08565253 1170.86418935 C-39.08238971 1164.81190562 -39.09066526 1158.75963596 -39.09747088 1152.70735669 C-39.10778701 1142.09453763 -39.11068136 1131.48173939 -39.10855865 1120.86891747 C-39.10630972 1109.48157698 -39.10837802 1098.09424957 -39.11570358 1086.70691109 C-39.11616289 1085.98761897 -39.1166222 1085.26832686 -39.11709542 1084.52723801 C-39.1189787 1081.59765545 -39.12089008 1078.6680729 -39.1228378 1075.73849038 C-39.14312692 1045.17678136 -39.14924978 1014.61507966 -39.15042202 984.05336466 C-39.15055152 980.76373571 -39.15068739 977.47410676 -39.15082884 974.18447781 C-39.15086285 973.36815342 -39.15089686 972.55182903 -39.1509319 971.71076754 C-39.15174876 953.62215884 -39.15612845 935.53355154 -39.16114053 917.44494359 C-39.16319723 909.99701869 -39.16517729 902.54909378 -39.16717303 895.10116887 C-39.16739421 894.27824156 -39.16761539 893.45531425 -39.16784327 892.60744975 C-39.18049166 845.44887014 -39.18874147 798.29029145 -39.18782616 751.13171005 C-39.1877946 749.36682522 -39.18776313 747.60194039 -39.18773174 745.83705556 C-39.18758497 737.86871226 -39.18740863 729.90036896 -39.18722397 721.93202566 C-39.18714172 718.37872389 -39.18706143 714.82542211 -39.18698134 711.27212033 C-39.18694055 709.49362881 -39.18689851 707.71513728 -39.18685523 705.93664576 C-39.18549464 649.69479838 -39.20013095 593.45297618 -39.22793579 537.21113586 C-39.23493779 523.04022606 -39.24187669 508.86931623 -39.24846458 494.69840622 C-39.24887033 493.825856 -39.24927608 492.95330578 -39.24969412 492.05431465 C-39.26212326 465.16333224 -39.26965507 438.27235189 -39.27218056 411.38136673 C-39.27226046 410.53714912 -39.27234036 409.69293151 -39.27242268 408.82313154 C-39.2741292 390.29089528 -39.27465164 371.75865915 -39.27408193 353.22642282 C-39.27388896 346.59533119 -39.27378487 339.96423955 -39.27372447 333.33314792 C-39.27370864 331.6834924 -39.27368823 330.03383688 -39.27366323 328.38418136 C-39.27331054 302.09549359 -39.28470816 275.80682737 -39.30197086 249.51814577 C-39.31926832 223.04196257 -39.32365529 196.56580921 -39.31044821 170.08962274 C-39.30862363 166.43076028 -39.30693707 162.77189777 -39.30533218 159.1130352 C-39.30501201 158.39580258 -39.30469183 157.67856995 -39.30436196 156.93960301 C-39.29965671 145.58481449 -39.30836932 134.23007761 -39.32267456 122.87529879 C-39.33646149 111.70890164 -39.335627 100.54257996 -39.32029028 89.37617806 C-39.31249799 83.40345061 -39.31105972 77.43090641 -39.32720499 71.4581916 C-39.34176755 66.02349407 -39.3378843 60.5891323 -39.31935725 55.15444968 C-39.31591753 53.20174719 -39.31916198 51.24901839 -39.32995967 49.29634272 C-39.40015513 35.68959957 -39.07627988 22.95525014 -29.7381897 12.08076477 C-21.10288905 3.39280985 -12.19240418 -0.00310047 0 0 Z " fill="#FFFFFF" transform="translate(1896.8163146972656,569.8528289794922)"/>
<path d="M0 0 C1.87361049 -0.00570969 3.7472175 -0.01267626 5.62081909 -0.02079773 C10.68703732 -0.03867877 15.75308186 -0.03757019 20.81932211 -0.03185534 C25.05867534 -0.02875595 29.29799557 -0.03486433 33.5373441 -0.04089409 C43.54380442 -0.05492133 53.55017934 -0.05339323 63.55664062 -0.04199219 C73.85749594 -0.03051461 84.15809078 -0.04458479 94.45891178 -0.07138866 C103.32378969 -0.09358688 112.18858609 -0.1001737 121.0534898 -0.09431225 C126.33887353 -0.09095111 131.62409035 -0.09330149 136.90945053 -0.11056328 C141.88201341 -0.12609595 146.85419221 -0.12200699 151.82674026 -0.10325813 C153.6438973 -0.09958961 155.46108319 -0.10262962 157.2782135 -0.11314392 C170.34294307 -0.18292467 182.02262647 0.56939136 192.46142578 9.41967773 C199.30414888 16.31670816 203.72675049 24.91513668 203.82874997 34.6991284 C203.82169588 35.46172818 203.81464179 36.22432796 203.80737394 37.01003683 C203.81170512 37.84469329 203.8160363 38.67934976 203.82049873 39.53929885 C203.83135533 42.33621732 203.82087079 45.13264156 203.81049252 47.92955589 C203.81392567 49.96361006 203.81867223 51.99766236 203.82461348 54.03171074 C203.83716199 59.64215268 203.83095564 65.25244321 203.82177981 70.86288595 C203.81508885 76.95871176 203.82572664 83.05451093 203.83417565 89.15033114 C203.84657081 99.84106323 203.84784488 110.53174573 203.84162521 121.22247887 C203.83499929 132.69409411 203.83487018 144.16568187 203.84267235 155.63729668 C203.84316035 156.36174107 203.84364834 157.08618546 203.84415113 157.83258271 C203.8461593 160.78311496 203.8482124 163.73364717 203.85032287 166.68417934 C203.87172896 196.64243486 203.87377639 226.60067006 203.86826583 256.55893131 C203.86751013 260.69914735 203.86678251 264.8393634 203.86608386 268.97957945 C203.86594477 269.80191074 203.86580568 270.62424202 203.86566237 271.47149244 C203.8627109 289.69037447 203.86572206 307.90925405 203.86998015 326.12813563 C203.87056231 328.62111605 203.87113115 331.11409648 203.87169578 333.60707691 C203.87321071 340.28979434 203.87473762 346.97251177 203.87628879 353.6552292 C203.88704676 400.31083006 203.89174604 446.96642866 203.88381863 493.62203026 C203.88367032 494.50162611 203.88352201 495.38122197 203.88336921 496.28747225 C203.88171019 506.09607815 203.87996061 515.90468403 203.8781762 525.7132899 C203.87801518 526.59887617 203.87785416 527.48446244 203.87768825 528.39688466 C203.87638041 535.58446895 203.87638041 535.58446895 203.87572706 539.14104197 C203.86533472 595.791875 203.87310315 652.44267698 203.89672852 709.09350586 C203.90267182 723.36839988 203.90856333 737.64329392 203.91413784 751.9181881 C203.9146535 753.23659135 203.9146535 753.23659135 203.91517957 754.58162901 C203.92570526 781.66574065 203.93130088 808.7498497 203.93169498 835.83396339 C203.93170777 836.6841362 203.93172055 837.53430901 203.93173372 838.41024462 C203.931962 857.07241066 203.93095602 875.73457648 203.92882467 894.39674239 C203.92806988 901.07415639 203.92739168 907.75157039 203.92674451 914.4289844 C203.92658182 916.0901824 203.92641416 917.75138039 203.9262415 919.41257838 C203.9235191 945.89396707 203.93207974 972.37533691 203.9460956 998.85672154 C203.9604956 1026.2648355 203.96006298 1053.67291358 203.94272088 1081.0810263 C203.94091666 1084.02335306 203.93917648 1086.96567984 203.93748665 1089.90800667 C203.93706615 1090.63011194 203.93664565 1091.35221721 203.9362124 1092.09620446 C203.92991107 1103.53681339 203.9370241 1114.9773731 203.94969585 1126.41797509 C203.96186908 1137.66360006 203.95945151 1148.90914789 203.94247554 1160.15477337 C203.93380137 1166.1720336 203.93152211 1172.18911304 203.94674485 1178.20636432 C203.96045708 1183.67797424 203.95583878 1189.14924749 203.93645966 1194.62083748 C203.93271698 1196.590267 203.93570523 1198.55972346 203.94617275 1200.52912872 C204.0134344 1214.11802239 203.13083849 1224.98482242 193.43017578 1235.40405273 C182.39967505 1245.67382927 170.73314259 1245.98960199 156.46142578 1245.92163086 C154.54516062 1245.92705774 152.62889964 1245.93418356 150.71264648 1245.94287109 C145.53080937 1245.96104004 140.34929235 1245.95406349 135.16744995 1245.94135475 C129.73223031 1245.93119372 124.29703718 1245.94062903 118.86181641 1245.94689941 C109.73611556 1245.95416679 100.61054441 1245.94461198 91.48486328 1245.92553711 C80.94992936 1245.90377018 70.41530514 1245.91082219 59.88037872 1245.93284273 C50.81849781 1245.95102265 41.75670986 1245.95354237 32.69481659 1245.94308805 C27.28990099 1245.93686739 21.88513074 1245.9359782 16.48022461 1245.94923401 C11.39767026 1245.9608296 6.31551335 1245.95269908 1.23300171 1245.92965698 C-0.62691591 1245.92438968 -2.48686726 1245.92584958 -4.34677124 1245.93470764 C-17.66313879 1245.99225838 -28.39115771 1244.92807472 -38.56982422 1235.40405273 C-47.90126085 1225.3043653 -49.73669328 1215.26930715 -49.69632405 1201.88898772 C-49.69861387 1200.65177234 -49.69861387 1200.65177234 -49.70094995 1199.38956271 C-49.70484604 1196.62635231 -49.70163539 1193.86319672 -49.69845867 1191.09998608 C-49.69980539 1189.09011274 -49.70158932 1187.08023967 -49.70377091 1185.07036707 C-49.70850809 1179.52709611 -49.70699691 1173.98384155 -49.70449313 1168.44056978 C-49.70286267 1162.41750406 -49.70699871 1156.39444189 -49.71040231 1150.37137729 C-49.7155619 1139.80836404 -49.71700728 1129.24535468 -49.7159462 1118.68234062 C-49.71482196 1107.34779995 -49.7158551 1096.01326256 -49.71951866 1084.67872238 C-49.71974831 1083.96291764 -49.71997797 1083.2471129 -49.72021458 1082.50961711 C-49.72115621 1079.59426764 -49.7221119 1076.67891818 -49.72308577 1073.76356873 C-49.73323179 1043.34621721 -49.73629181 1012.92886753 -49.73687788 982.51151451 C-49.73694263 979.23716463 -49.73701057 975.96281476 -49.73708129 972.68846488 C-49.73709829 971.87593877 -49.7371153 971.06341265 -49.73713282 970.22626453 C-49.7375412 952.2241366 -49.73973088 934.22200903 -49.74223713 916.21988128 C-49.74326548 908.80825291 -49.74425551 901.39662452 -49.74525338 893.98499614 C-49.74536397 893.16608724 -49.74547456 892.34717835 -49.7455885 891.50345403 C-49.75191291 844.57363855 -49.75603758 797.6438233 -49.75557995 750.71400738 C-49.75556417 748.95758791 -49.75554843 747.20116844 -49.75553274 745.44474897 C-49.75545936 737.5145711 -49.75537119 729.58439323 -49.75527886 721.65421537 C-49.75523773 718.11790947 -49.75519759 714.58160357 -49.75515754 711.04529767 C-49.75513715 709.27531272 -49.75511613 707.50532776 -49.75509448 705.7353428 C-49.75441415 649.75975709 -49.76173284 593.78417769 -49.77563477 537.80859375 C-49.77913574 523.70437211 -49.78260517 509.60015046 -49.78589916 495.49592876 C-49.78610204 494.62749623 -49.78630491 493.75906371 -49.78651393 492.86431504 C-49.79272798 466.10250257 -49.79649431 439.34069061 -49.79775715 412.57887745 C-49.7977971 411.73878125 -49.79783705 410.89868505 -49.79787821 410.03313139 C-49.79873145 391.59185403 -49.7989927 373.15057671 -49.79870784 354.70929934 C-49.79861135 348.11085094 -49.79855931 341.51240253 -49.79852911 334.91395413 C-49.79852119 333.27240654 -49.79851099 331.63085895 -49.79849848 329.98931137 C-49.7983221 303.82421265 -49.80402247 277.65911935 -49.8126523 251.49402218 C-49.82129886 225.14430091 -49.82349637 198.79458714 -49.81689098 172.44486505 C-49.81597867 168.80443881 -49.81513539 165.16401255 -49.81433296 161.52358627 C-49.81417287 160.80995955 -49.81401279 160.09633284 -49.81384785 159.36108107 C-49.81149413 148.0579511 -49.81585406 136.75483409 -49.82300415 125.45170655 C-49.82989325 114.33934526 -49.8294852 103.2269995 -49.82181201 92.11463762 C-49.81791268 86.16949427 -49.8172059 80.22439697 -49.82526936 74.27925678 C-49.83253935 68.87196056 -49.8306221 63.46474881 -49.8213455 58.05745637 C-49.81962264 56.11239634 -49.82125755 54.16732973 -49.8266467 52.2222764 C-49.86811522 36.18252203 -49.57778841 22.4490668 -38.22216797 9.96655273 C-27.42523083 -0.2433169 -13.97038619 -0.0385119 0 0 Z " fill="#FFFFFF" transform="translate(1104.56982421875,569.595947265625)"/>
<path d="M0 0 C1.87361049 -0.00570969 3.7472175 -0.01267626 5.62081909 -0.02079773 C10.68703732 -0.03867877 15.75308186 -0.03757019 20.81932211 -0.03185534 C25.05867534 -0.02875595 29.29799557 -0.03486433 33.5373441 -0.04089409 C43.54380442 -0.05492133 53.55017934 -0.05339323 63.55664062 -0.04199219 C73.85749594 -0.03051461 84.15809078 -0.04458479 94.45891178 -0.07138866 C103.32378969 -0.09358688 112.18858609 -0.1001737 121.0534898 -0.09431225 C126.33887353 -0.09095111 131.62409035 -0.09330149 136.90945053 -0.11056328 C141.88201341 -0.12609595 146.85419221 -0.12200699 151.82674026 -0.10325813 C153.6438973 -0.09958961 155.46108319 -0.10262962 157.2782135 -0.11314392 C170.34294307 -0.18292467 182.02262647 0.56939136 192.46142578 9.41967773 C202.45143181 19.48896953 204.59792743 31.25182075 204.55667561 44.91270572 C204.55820216 45.73682155 204.55972871 46.56093737 204.56130152 47.41002641 C204.56519756 50.17086981 204.56198697 52.93165836 204.55881023 55.69250202 C204.56015696 57.70066993 204.56194089 59.70883758 204.56412247 61.71700475 C204.56885962 67.25554052 204.56734849 72.79405989 204.5648447 78.33259648 C204.56321422 84.35052918 204.56735028 90.36845833 204.57075387 96.38638991 C204.57591345 106.94039078 204.57735884 117.49438776 204.57629776 128.04838943 C204.57517352 139.37325477 204.57620666 150.69811681 204.57987022 162.02298164 C204.5802147 163.09577384 204.5802147 163.09577384 204.58056614 164.19023861 C204.58150778 167.10310409 204.58246346 170.01596957 204.58343733 172.92883504 C204.59358334 203.32023928 204.59664337 233.71164167 204.59722944 264.10304741 C204.59729419 267.3746021 204.59736213 270.6461568 204.59743285 273.9177115 C204.59744986 274.72954403 204.59746686 275.54137657 204.59748438 276.37781009 C204.59789276 294.36458653 204.60008244 312.35136262 204.6025887 330.33813888 C204.60361704 337.74345138 204.60460707 345.14876388 204.60560495 352.55407637 C204.60571554 353.37228748 204.60582613 354.19049858 204.60594007 355.03350396 C204.61226448 401.92331812 204.61638914 448.81313205 204.61593151 495.70294666 C204.61591573 497.45786829 204.6159 499.21278992 204.6158843 500.96771155 C204.61581092 508.89112638 204.61572275 516.81454121 204.61563042 524.73795604 C204.61558929 528.27124596 204.61554915 531.80453587 204.6155091 535.33782578 C204.61548871 537.10630118 204.61546769 538.87477658 204.61544605 540.64325198 C204.61476572 596.57108996 204.6220844 652.49892161 204.63598633 708.42675781 C204.6394873 722.5189479 204.64295674 736.61113799 204.64625072 750.70332813 C204.6464536 751.57101991 204.64665647 752.43871168 204.64686549 753.33269715 C204.65307955 780.0716932 204.65684587 806.81068873 204.65810871 833.54968548 C204.65814866 834.38906574 204.65818861 835.22844601 204.65822977 836.09326204 C204.65908301 854.5188259 204.65934426 872.94438973 204.6590594 891.36995361 C204.65896291 897.96277999 204.65891087 904.55560638 204.65888067 911.14843276 C204.65887275 912.78858164 204.65886255 914.42873053 204.65885005 916.06887941 C204.65867366 942.2116555 204.66437402 968.35442617 204.67300386 994.49720071 C204.68165043 1020.82445007 204.68384793 1047.15169193 204.67724254 1073.47894212 C204.67633023 1077.11626828 204.67548696 1080.75359445 204.67468452 1084.39092064 C204.67452444 1085.10393961 204.67436435 1085.81695859 204.67419941 1086.55158419 C204.6718457 1097.84506171 204.67620561 1109.13852625 204.68335571 1120.43200132 C204.69024483 1131.53488863 204.68983674 1142.6377604 204.68216357 1153.7406483 C204.67826426 1159.68071645 204.67755741 1165.62073852 204.68562093 1171.56080351 C204.69289097 1176.96349461 204.6909736 1182.36610118 204.68169706 1187.7687885 C204.67997422 1189.71218148 204.68160907 1191.65558105 204.68699827 1193.59896732 C204.72941383 1209.99084395 204.42133588 1223.66879844 192.78564453 1236.28686523 C185.22189824 1243.08545643 177.51227718 1245.5513031 167.58898926 1245.55795288 C166.79366209 1245.56233513 165.99833491 1245.56671739 165.17890692 1245.57123244 C162.51070766 1245.58459939 159.84254141 1245.59079464 157.17431641 1245.59692383 C155.26218518 1245.60482662 153.35005543 1245.61309569 151.43792725 1245.6217041 C145.15410788 1245.64790962 138.87028192 1245.663233 132.58642578 1245.67749023 C130.42103573 1245.68285103 128.25564571 1245.68822854 126.09025574 1245.69362259 C117.07941515 1245.71525157 108.06857634 1245.73398626 99.05771637 1245.74524498 C86.15772841 1245.76147033 73.25804231 1245.79461378 60.35816813 1245.85164583 C51.28111729 1245.89040326 42.20414698 1245.90988471 33.12701559 1245.91516554 C27.70956519 1245.91881179 22.29243685 1245.93075558 16.87507629 1245.96326828 C11.77289502 1245.99344993 6.67122898 1245.99962473 1.56897736 1245.98788452 C-0.29657161 1245.98766461 -2.16214518 1245.99590065 -4.02761078 1246.01353836 C-17.8285652 1246.13684721 -29.12766541 1244.73328098 -39.59326172 1234.72436523 C-46.27946616 1226.87534263 -48.7248398 1219.38954264 -48.69977605 1209.29716396 C-48.70167529 1208.4678683 -48.70357453 1207.63857264 -48.70553133 1206.78414681 C-48.71071433 1203.98152494 -48.70873617 1201.17895291 -48.70683861 1198.37632751 C-48.7090938 1196.34754263 -48.71178489 1194.31875818 -48.71487445 1192.28997439 C-48.72213158 1186.67554217 -48.72310371 1181.06112329 -48.72309722 1175.44668701 C-48.72416406 1169.35341607 -48.73095145 1163.26015112 -48.73700392 1157.16688347 C-48.7468018 1146.47437725 -48.75283103 1135.78187466 -48.75632095 1125.08936501 C-48.76007357 1113.61284991 -48.76594462 1102.13633891 -48.7743988 1090.65982628 C-48.7749299 1089.93569762 -48.77546099 1089.21156895 -48.77600818 1088.465497 C-48.77817485 1085.51635121 -48.78035148 1082.56720542 -48.78254212 1079.61805965 C-48.80905686 1043.84918087 -48.8246113 1008.08029992 -48.837705 972.31141407 C-48.84195412 960.71341523 -48.84652174 949.11541655 -48.85128832 937.51741791 C-48.87619553 876.77272093 -48.89826016 816.02802349 -48.9104787 755.28332251 C-48.91137608 750.83603695 -48.91229078 746.3887514 -48.91320644 741.94146585 C-48.91338805 741.05925852 -48.91356966 740.17705119 -48.91375678 739.2681103 C-48.91559947 730.3299921 -48.91746532 721.3918739 -48.91935487 712.45375571 C-48.91973292 710.66162581 -48.92010921 708.86949592 -48.92048375 707.07736602 C-48.93251438 649.51794813 -48.9622036 591.95856047 -49.00389886 534.39915682 C-49.03384574 493.04578431 -49.06147553 451.69241801 -49.07117653 410.33903503 C-49.07137708 409.48870082 -49.07157764 408.63836661 -49.07178427 407.76226469 C-49.07613474 389.09580714 -49.07908057 370.42934962 -49.08071078 351.76289165 C-49.08138715 344.25233831 -49.08224267 336.741785 -49.08314896 329.23123169 C-49.08324305 328.40924169 -49.08333715 327.5872517 -49.0834341 326.74035291 C-49.08654707 300.25521884 -49.10506049 273.77012321 -49.13149892 247.28500299 C-49.15803998 220.60918781 -49.16879335 193.93341553 -49.15776294 167.25758798 C-49.1562414 163.5715546 -49.15489597 159.88552117 -49.15365601 156.19948769 C-49.15340628 155.47692135 -49.15315655 154.75435501 -49.15289925 154.00989272 C-49.14940395 142.56749085 -49.16271666 131.12517269 -49.18303374 119.68279092 C-49.20266293 108.43192544 -49.20405066 97.18117303 -49.18730745 85.93029239 C-49.17886898 79.91149823 -49.17840786 73.89299063 -49.19991891 67.87422264 C-49.21933126 62.39880941 -49.2157291 56.92391243 -49.19376542 51.44851325 C-49.18990108 49.47995836 -49.1944191 47.51136459 -49.20835244 45.54285523 C-49.29319892 32.72538046 -48.69076986 20.76141935 -39.28857422 10.92749023 C-27.44756054 0.43204629 -15.15012992 -0.04176408 0 0 Z " fill="#FFFFFF" transform="translate(2308.56982421875,569.595947265625)"/>
<path d="M0 0 C0.98863334 -0.00290688 1.97726668 -0.00581376 2.99585861 -0.00880873 C6.30488562 -0.01610097 9.61372676 -0.00916888 12.92275238 -0.002285 C15.32061562 -0.00458973 17.71847815 -0.00776634 20.11633921 -0.01173949 C25.32785746 -0.0183501 30.53933804 -0.01875054 35.7508564 -0.01364517 C43.50062429 -0.00607393 51.25035726 -0.00995095 59.00012492 -0.01606179 C72.84194328 -0.02659014 86.68374317 -0.02568173 100.52556328 -0.01990396 C112.63878133 -0.01487257 124.75199261 -0.01355958 136.86521149 -0.01594925 C137.66875419 -0.01610202 138.47229689 -0.01625479 139.30018936 -0.01641219 C142.56204276 -0.01703487 145.82389615 -0.01767167 149.08574953 -0.01833172 C179.68354277 -0.02444952 210.28132425 -0.0189031 240.87911568 -0.00813792 C268.06257217 0.00135326 295.24600992 0.00050401 322.42946625 -0.00905991 C352.9713493 -0.01976949 383.51322197 -0.02401565 414.05510664 -0.01783538 C417.31101195 -0.01719395 420.56691726 -0.01656826 423.82282257 -0.01594925 C425.02535025 -0.01571202 425.02535025 -0.01571202 426.25217142 -0.01546999 C438.35768469 -0.01319518 450.46319046 -0.01585535 462.5687027 -0.02090836 C476.33340051 -0.02662529 490.09807696 -0.02520058 503.86277211 -0.01434687 C511.56609185 -0.00847301 519.26936535 -0.00809281 526.97268389 -0.01563922 C532.72268126 -0.02065082 538.47263076 -0.01521755 544.22262067 -0.00569007 C546.55022108 -0.00345287 548.87782768 -0.00459947 551.20542413 -0.00944164 C554.36638256 -0.01551391 557.52708882 -0.00929414 560.68803406 0 C561.59394301 -0.00468233 562.49985196 -0.00936466 563.4332127 -0.01418889 C575.32638429 0.05580888 585.09544342 3.07139626 593.95339203 11.19699478 C601.88547338 19.81739725 604.15190316 28.9142524 604.10128593 40.26530457 C604.10479201 41.26284964 604.10829808 42.26039472 604.1119104 43.28816843 C604.12123365 46.63956681 604.11629862 49.99079177 604.11144257 53.34219742 C604.11517835 55.76578324 604.11977958 58.18936786 604.12517321 60.61295056 C604.13486686 65.88692307 604.13831699 71.16084502 604.13626099 76.43482208 C604.13321103 84.27759768 604.14153487 92.12033265 604.15201024 99.96310034 C604.17135504 114.78560928 604.17697864 129.60810438 604.17812435 144.43062446 C604.17904335 155.87725845 604.18315954 167.32388702 604.1895256 178.77051926 C604.19132069 182.06511473 604.19310031 185.35971021 604.19487536 188.6543057 C604.1955385 189.88286718 604.1955385 189.88286718 604.19621505 191.13624808 C604.20852399 214.17540083 604.21641612 237.2145517 604.21552849 260.25370789 C604.21549733 261.1223902 604.21546617 261.99107252 604.21543407 262.88607855 C604.21526786 267.28894615 604.21506977 271.69181375 604.21486466 276.09468135 C604.21480482 277.40632481 604.21480482 277.40632481 604.21474378 278.74446612 C604.2146629 280.5127748 604.21457931 282.28108349 604.21449299 284.04939217 C604.21326748 311.5615048 604.22828052 339.07356813 604.25563812 366.58566666 C604.28636 397.493791 604.30357056 428.40188296 604.30171168 459.31002355 C604.30156242 462.60587645 604.301465 465.90172934 604.30140305 469.19758224 C604.30136808 470.41487024 604.30136808 470.41487024 604.30133241 471.6567499 C604.30127087 484.71557726 604.3140419 497.77436181 604.33126757 510.83317644 C604.34822223 523.95800245 604.35019921 537.08276585 604.33704893 550.20759675 C604.32965867 558.00385499 604.33331993 565.79992301 604.35293361 573.59616109 C604.36634426 579.41897045 604.35882482 585.24163103 604.34318717 591.06443897 C604.34010754 593.41905443 604.34378569 595.77369047 604.35490732 598.12828168 C604.36903189 601.33075625 604.35843842 604.5322538 604.34179497 607.73469543 C604.35173133 608.64715247 604.36166769 609.55960951 604.37190515 610.49971676 C604.24726254 621.85699383 599.9299594 631.23965823 591.91432953 639.15793228 C580.72730395 648.82876758 567.22551038 648.83313121 553.25319672 648.73752213 C551.41368592 648.73967239 549.57417647 648.7435566 547.73467255 648.74902725 C542.77618234 648.75865392 537.81805671 648.74350311 532.85961056 648.72312117 C527.6535101 648.70544947 522.4474192 648.70907715 517.24129486 648.70984268 C508.50594289 648.70797473 499.77073062 648.69067616 491.03542328 648.66330338 C480.95093046 648.63181865 470.86659022 648.62130886 460.7820518 648.62277448 C450.01751796 648.62412736 439.25304252 648.61023903 428.48852634 648.59188128 C425.39737283 648.5876287 422.3062288 648.58620032 419.21507263 648.58540344 C414.35253994 648.58338799 409.49013428 648.57112497 404.62764359 648.55107117 C402.84793247 648.54525244 401.06820673 648.54276406 399.28848648 648.54392624 C384.42778507 648.54995611 372.04121894 647.66873052 360.66432953 637.16183853 C351.53736496 627.58440146 350.39593729 616.15740682 350.47220612 603.44322586 C350.46962716 602.0647486 350.46572217 600.68627331 350.46061653 599.30780309 C350.45039723 595.54342509 350.45860893 591.77928345 350.46991336 588.01491702 C350.47880049 583.94598534 350.47025352 579.87708594 350.46370697 575.80815506 C350.45456721 568.76380221 350.45586645 561.71951458 350.46389198 554.67516136 C350.47514328 544.47834484 350.46606502 534.28162083 350.45133018 524.08481234 C350.42757756 507.52365664 350.41419576 490.96251239 350.41017914 474.40134048 C350.40993427 473.41101558 350.4096894 472.42069068 350.40943711 471.40035593 C350.40689117 460.3515099 350.40632452 449.30266476 350.40737152 438.25381851 C350.40770456 434.2466774 350.40798995 430.23953629 350.40822601 426.23239517 C350.4082888 425.24358532 350.40835159 424.25477547 350.40841628 423.23600168 C350.40902151 406.73629599 350.39412439 390.23664308 350.36739296 373.7369594 C350.35160507 363.56836707 350.34931179 353.39994534 350.36452698 343.23135125 C350.37400352 336.26231431 350.3692188 329.29338009 350.35331316 322.32435519 C350.34463233 318.30672358 350.34244597 314.28936512 350.35783958 310.27174759 C350.37183938 306.5884395 350.36723403 302.90562432 350.34831857 299.22234254 C350.34303713 297.27047751 350.35734643 295.31858918 350.37252909 293.36677605 C350.27254343 281.08211432 346.95199344 271.26206634 338.13698578 262.56808853 C328.68161013 254.58576088 316.55458776 253.66053697 304.68152618 253.76634598 C303.30117154 253.76404537 301.92081893 253.75997303 300.540474 253.7543053 C296.78472339 253.74382943 293.0294194 253.75787191 289.27371395 253.77617204 C285.20890996 253.79150114 281.14414285 253.7834517 277.07932281 253.77814102 C270.04645615 253.77189088 263.01371882 253.77959129 255.9808712 253.79639244 C245.79968404 253.82025444 235.618635 253.81719319 225.43743152 253.806764 C208.89904075 253.79008398 192.36068409 253.78748152 175.82228851 253.79733658 C174.33973938 253.79821099 174.33973938 253.79821099 172.82723976 253.79910307 C161.79814188 253.8058327 150.76904696 253.81490765 139.73995209 253.82541275 C135.73842628 253.82915303 131.7369004 253.83281255 127.73537445 253.83639908 C126.74791817 253.83728999 125.76046189 253.83818091 124.74308269 253.83909882 C108.26248831 253.85340291 91.78195974 253.84825378 75.30137163 253.82847637 C65.14865621 253.81716922 54.99622688 253.8228814 44.84354199 253.85075521 C37.88619974 253.86867944 30.92900285 253.86876127 23.97165173 253.85496659 C19.96191035 253.84763242 15.95260557 253.84840884 11.94291306 253.87125206 C8.26576096 253.89206178 4.58936184 253.8895028 0.91221435 253.86909544 C-1.0338184 253.86421936 -2.97986614 253.88384612 -4.92579418 253.90461355 C-15.78222039 253.80361126 -25.42298792 250.90495255 -33.40598297 243.27121353 C-40.39034725 235.21113243 -43.46535057 226.73372656 -43.43013763 216.08769608 C-43.43537431 215.29388918 -43.44061099 214.50008229 -43.44600636 213.68222064 C-43.46094108 211.03710983 -43.46171007 208.39219359 -43.46237946 205.74704361 C-43.4700054 203.84432018 -43.47843365 201.94159983 -43.48760223 200.03888321 C-43.50951279 194.87955964 -43.51834167 189.72029533 -43.52342868 184.56093049 C-43.52707672 181.3337174 -43.53331915 178.10651972 -43.54043007 174.87931252 C-43.56491387 163.60946728 -43.57797388 152.33966799 -43.58152008 141.06979752 C-43.58515315 130.58322736 -43.61503507 120.09695027 -43.65692466 109.61046964 C-43.6916774 100.59279567 -43.70706939 91.57521858 -43.70776612 82.55747813 C-43.70855731 77.17809308 -43.7172234 71.79900664 -43.74576378 66.41969109 C-43.77202935 61.35602578 -43.77410227 56.29290488 -43.75810814 51.22920227 C-43.75630032 49.37817124 -43.76292361 47.52710829 -43.77892685 45.67614555 C-43.89575223 31.27790242 -42.05518949 20.16910461 -31.61301422 9.38058853 C-22.53025676 1.51079073 -11.62667218 -0.06009428 0 0 Z " fill="#FFFFFF" transform="translate(2964.1559829711914,-0.2516822814941406)"/>
<path d="M0 0 C1.14549306 -0.00551503 1.14549306 -0.00551503 2.31412739 -0.01114148 C4.8632287 -0.02212054 7.41228917 -0.02601231 9.96141052 -0.02983093 C11.79339729 -0.03610001 13.62538281 -0.0427472 15.45736694 -0.04974365 C21.46578596 -0.07073576 27.47420508 -0.08114236 33.48265076 -0.09111023 C35.55577546 -0.09515977 37.62890003 -0.09927675 39.70202446 -0.10346031 C49.444758 -0.12250231 59.18748402 -0.13673472 68.93023258 -0.14507228 C80.15420209 -0.15483754 91.37797401 -0.18114273 102.60187393 -0.22157317 C111.29172444 -0.25179484 119.9815185 -0.26654694 128.67142051 -0.26985329 C133.85464028 -0.27219707 139.03764873 -0.28106975 144.22081184 -0.30631447 C149.10218813 -0.32970594 153.98321561 -0.33378414 158.86463356 -0.32355309 C160.64751602 -0.32306028 162.43041631 -0.32930461 164.21324539 -0.34310913 C177.36392614 -0.43916612 189.85296183 0.21059698 200.29905701 9.24092102 C208.31211342 17.15665286 212.62901306 26.53819725 212.76048684 37.89142811 C212.75112218 38.80274176 212.74175751 39.71405541 212.73210907 40.65298462 C212.73792283 41.65514507 212.7437366 42.65730552 212.74972653 43.68983448 C212.76427273 47.03303982 212.75046595 50.37550478 212.73667908 53.71870422 C212.74129009 56.14574463 212.74764435 58.57278225 212.75558805 60.99981403 C212.76879532 66.26899542 212.76962073 71.53796051 212.75939941 76.80713272 C212.74424126 84.64266105 212.752019 92.47805147 212.76423264 100.31357893 C212.7852773 114.30947004 212.78347735 128.30528803 212.77191699 142.30118605 C212.76185008 154.54930419 212.75923015 166.79739554 212.76400757 179.04551697 C212.76446588 180.26474607 212.76446588 180.26474607 212.76493345 181.50860605 C212.76617883 184.80820298 212.76745243 188.10779989 212.7687725 191.40739678 C212.78100526 222.35268569 212.7699198 253.29792807 212.74838492 284.24320979 C212.72940285 311.72912544 212.73110137 339.21496696 212.75022888 366.70088196 C212.77165289 397.58999742 212.78013768 428.47907177 212.76777983 459.36819363 C212.76649698 462.66173743 212.76524562 465.95528125 212.76400757 469.24882507 C212.76369126 470.0597644 212.76337495 470.87070372 212.76304905 471.70621697 C212.75850143 483.94587448 212.76381605 496.18550225 212.77392578 508.42515564 C212.78536513 522.34384818 212.78249857 536.26245625 212.76080281 550.18113828 C212.74906424 557.96852231 212.74828129 565.7557234 212.7633875 573.54310266 C212.77342432 579.3591539 212.76252515 585.17504393 212.74348921 590.99107683 C212.73902114 593.34287682 212.74129394 595.69470131 212.75099236 598.04648554 C212.7631712 601.24512358 212.75066481 604.44277082 212.73210907 607.64135742 C212.74147373 608.55267107 212.7508384 609.46398472 212.76048684 610.40291393 C212.6364073 621.11762594 208.79683166 630.51960971 201.22874451 638.14717102 C191.0820607 646.35431173 181.1508764 648.30353925 168.3428545 648.27859879 C167.35911601 648.28065142 166.37537752 648.28270405 165.36182877 648.28481889 C162.05742975 648.29048428 158.75307246 648.2890322 155.44866943 648.28761292 C153.05879566 648.29019681 150.66892232 648.29321003 148.27904958 648.29661632 C142.39459495 648.3038402 136.51014874 648.3063888 130.62569071 648.30694537 C123.57648463 648.30786012 116.52728691 648.31453091 109.47808443 648.3212922 C92.44226877 648.33734245 75.40645401 648.34325418 58.37063214 648.34804094 C50.3105998 648.35037767 42.25056817 648.35398038 34.19053639 648.35773632 C6.5962726 648.37057039 -20.99799079 648.38129015 -48.5922575 648.38473892 C-50.32402511 648.38496055 -52.05579272 648.38518234 -53.78756033 648.38540427 C-55.52348722 648.38562491 -57.25941411 648.3858454 -58.995341 648.38606572 C-62.47785612 648.38650827 -65.96037124 648.38695539 -69.44288635 648.3874054 C-70.3063458 648.38751479 -71.16980525 648.38762418 -72.05943014 648.38773688 C-100.05983284 648.39136786 -128.06020966 648.4072902 -156.06060246 648.43059576 C-185.66966036 648.45519518 -215.27870348 648.46891179 -244.8877719 648.47010684 C-248.13842603 648.47027829 -251.38908015 648.47049372 -254.63973427 648.47074127 C-255.84032332 648.47082492 -255.84032332 648.47082492 -257.06516669 648.47091027 C-269.9415426 648.47206055 -282.81789193 648.48308048 -295.69425887 648.49762833 C-308.63761875 648.51199896 -321.58094458 648.51522709 -334.52431025 648.50718835 C-342.21146212 648.50273494 -349.898504 648.50658116 -357.5856414 648.52242686 C-363.3290135 648.53333735 -369.07228747 648.5285269 -374.81565569 648.51765499 C-377.13664205 648.51569409 -379.45763944 648.51879446 -381.77861031 648.52749935 C-412.26505229 648.63459089 -412.26505229 648.63459089 -424.70484924 637.40107727 C-435.14067036 626.60617413 -435.49966878 614.15732569 -435.40235901 600.05903625 C-435.40750588 598.15394934 -435.41479293 596.2488672 -435.42404175 594.34379578 C-435.44246478 589.20118836 -435.4296753 584.05910327 -435.40995145 578.91651797 C-435.39349061 573.51781595 -435.40238804 568.11914508 -435.4074707 562.72042847 C-435.41198298 553.6579205 -435.39617457 544.59561952 -435.36817932 535.53315735 C-435.33612179 525.0754449 -435.33614984 514.61810543 -435.35339409 504.16036648 C-435.36929035 494.07321362 -435.36250629 483.98619671 -435.34545708 473.89904976 C-435.33860829 469.61820389 -435.33959663 465.3374677 -435.34700203 461.05662346 C-435.35469674 456.01095671 -435.34243507 450.96571145 -435.31515312 445.92011642 C-435.30830191 444.07513619 -435.30813602 442.23011634 -435.31536865 440.38513756 C-435.36401636 426.352403 -434.16492648 414.64314192 -423.77125549 404.14717102 C-414.17081842 396.25616429 -405.38913794 394.70242281 -393.2480011 394.76863098 C-391.87608677 394.76533673 -390.50417509 394.76072062 -389.13226914 394.75490332 C-385.3767116 394.74272552 -381.62138064 394.74904153 -377.86582351 394.75840831 C-373.80978378 394.76521821 -369.75378515 394.75466503 -365.69775391 394.74612427 C-358.67247022 394.73356832 -351.64724809 394.73158133 -344.62195587 394.73648071 C-334.45156204 394.74329546 -324.28126078 394.73075908 -314.1108835 394.71297354 C-297.59191651 394.68433265 -281.07295952 394.6668136 -264.55397034 394.65840149 C-263.56576736 394.65789431 -262.57756437 394.65738713 -261.55941585 394.65686458 C-254.54669586 394.65333813 -247.53397571 394.65020892 -240.52125549 394.64717102 C-232.51751186 394.6437029 -224.51376836 394.64005339 -216.51002502 394.63594055 C-215.52424212 394.63543794 -214.53845922 394.63493532 -213.52280411 394.63441747 C-197.0694932 394.62566499 -180.61621663 394.60521107 -164.16292882 394.57645845 C-154.02213877 394.55930383 -143.881446 394.55268227 -133.74064335 394.5597645 C-126.78794573 394.56395241 -119.83530934 394.55756643 -112.88262597 394.54296577 C-108.87505541 394.53492966 -104.86763683 394.53175963 -100.86006737 394.5417881 C-97.18471698 394.55090812 -93.509648 394.5460685 -89.83432141 394.53057367 C-87.88907306 394.52591838 -85.94380624 394.53591865 -83.99858165 394.54660177 C-71.29285266 394.46462452 -60.51408037 392.37034322 -51.02516174 383.51826477 C-44.78583514 376.81215562 -41.64818437 368.55844832 -41.64376354 359.47229767 C-41.64075589 358.30827974 -41.63774825 357.14426181 -41.63464946 355.94497061 C-41.63727501 354.02536072 -41.63727501 354.02536072 -41.63995361 352.06697083 C-41.63825145 350.69438699 -41.63610175 349.32180364 -41.63354236 347.94922113 C-41.62894396 344.96229514 -41.62752477 341.97538987 -41.62850761 338.98846054 C-41.63009984 334.12836136 -41.62489931 329.26828275 -41.61888123 324.40818787 C-41.61076562 317.35065721 -41.60582341 310.29313017 -41.60259056 303.2355957 C-41.59709296 292.0751239 -41.58019367 280.91468264 -41.56124878 269.75422668 C-41.55489182 265.93537145 -41.54858338 262.11651614 -41.54227161 258.29766083 C-41.54068785 257.34322632 -41.53910409 256.38879182 -41.53747233 255.40543506 C-41.51953215 244.53842476 -41.50330837 233.67141231 -41.48829651 222.80439758 C-41.48692064 221.81094198 -41.48554477 220.81748638 -41.4841272 219.79392606 C-41.46221333 203.70710427 -41.45144503 187.62029034 -41.44392576 171.53345627 C-41.43584773 155.01245513 -41.41253386 138.49152133 -41.37597209 121.97055864 C-41.3539731 111.78395956 -41.34427449 101.59749903 -41.35047243 91.41087741 C-41.35365306 84.42400823 -41.34227709 77.43725713 -41.31957801 70.45042449 C-41.30694163 66.42259572 -41.30070211 62.39503008 -41.31199455 58.36719131 C-41.32221781 54.67308921 -41.313802 50.97949621 -41.29113159 47.28545386 C-41.28383246 45.33007992 -41.29600978 43.37466247 -41.30909175 41.41931868 C-41.19792567 29.25795023 -38.39776354 19.00207949 -29.77125549 10.14717102 C-21.02564175 2.15518732 -11.66674327 -0.00305027 0 0 Z " fill="#FFFFFF" transform="translate(3355.771255493164,2269.852828979492)"/>
<path d="M0 0 C1.8395108 -0.00215027 3.67902025 -0.00603448 5.51852417 -0.01150513 C10.47701438 -0.02113179 15.43514001 -0.00598098 20.39358616 0.01440096 C25.59968662 0.03207266 30.80577751 0.02844498 36.01190186 0.02767944 C44.74725382 0.0295474 53.48246609 0.04684596 62.21777344 0.07421875 C72.30226625 0.10570347 82.38660649 0.11621326 92.47114491 0.11474764 C103.23567876 0.11339476 114.0001542 0.12728309 124.76467037 0.14564085 C127.85582389 0.14989343 130.94696791 0.15132181 134.03812408 0.15211868 C138.90065677 0.15413413 143.76306244 0.16639716 148.62555313 0.18645096 C150.40526425 0.19226968 152.18498999 0.19475806 153.96471024 0.19359589 C168.82541165 0.18756602 181.21197778 1.06879161 192.58886719 11.57568359 C201.71583176 21.15312066 202.85725943 32.5801153 202.7809906 45.29429626 C202.78356956 46.67277352 202.78747455 48.05124882 202.79258019 49.42971903 C202.80279948 53.19409703 202.79458778 56.95823867 202.78328335 60.72260511 C202.77439622 64.79153679 202.78294319 68.86043618 202.78948975 72.92936707 C202.7986295 79.97371991 202.79733026 87.01800755 202.78930473 94.06236076 C202.77805344 104.25917729 202.7871317 114.4559013 202.80186654 124.65270979 C202.82561916 141.21386548 202.83900095 157.77500974 202.84301758 174.33618164 C202.84326245 175.32650654 202.84350732 176.31683145 202.8437596 177.3371662 C202.84630555 188.38601222 202.8468722 199.43485737 202.8458252 210.48370361 C202.84549216 214.49084472 202.84520677 218.49798584 202.8449707 222.50512695 C202.84490792 223.49393681 202.84484513 224.48274666 202.84478044 225.50152045 C202.84417521 242.00122613 202.85907232 258.50087904 202.88580376 275.00056273 C202.90159165 285.16915505 202.90388492 295.33757679 202.88866974 305.50617088 C202.87919319 312.47520782 202.88397792 319.44414204 202.89988356 326.41316693 C202.90856438 330.43079854 202.91075074 334.448157 202.89535713 338.46577454 C202.88135733 342.14908262 202.88596269 345.8318978 202.90487815 349.51517958 C202.91015959 351.46704462 202.89585029 353.41893294 202.88066763 355.37074608 C202.98065328 367.6554078 206.30120328 377.47545579 215.11621094 386.16943359 C224.57158659 394.15176125 236.69860895 395.07698515 248.57167053 394.97117615 C249.95202518 394.97347675 251.33237779 394.97754909 252.71272272 394.98321682 C256.46847332 394.9936927 260.22377732 394.97965022 263.97948277 394.96135008 C268.04428675 394.94602098 272.10905387 394.95407043 276.1738739 394.9593811 C283.20674056 394.96563124 290.2394779 394.95793083 297.27232552 394.94112968 C307.45351268 394.91726768 317.63456172 394.92032894 327.81576519 394.93075813 C344.35415596 394.94743815 360.89251263 394.95004061 377.4309082 394.94018555 C378.91345734 394.93931113 378.91345734 394.93931113 380.42595696 394.93841905 C391.45505483 394.93168942 402.48414976 394.92261447 413.51324463 394.91210938 C417.51477044 394.9083691 421.51629631 394.90470958 425.51782227 394.90112305 C426.50527855 394.90023213 427.49273482 394.89934122 428.51011402 394.89842331 C444.99070841 394.88411921 461.47123698 394.88926835 477.95182508 394.90904576 C488.1045405 394.9203529 498.25696984 394.91464072 508.40965473 394.88676692 C515.36699697 394.86884269 522.32419386 394.86876085 529.28154499 394.88255554 C533.29128637 394.8898897 537.30059115 394.88911329 541.31028366 394.86627007 C544.98743575 394.84546034 548.66383488 394.84801933 552.34098237 394.86842669 C554.28701512 394.87330276 556.23306286 394.85367601 558.1789909 394.83290857 C569.0354171 394.93391087 578.67618463 397.83256957 586.65917969 405.46630859 C593.64354397 413.5263897 596.71854728 422.00379557 596.68333435 432.64982605 C596.68857103 433.44363294 596.69380771 434.23743984 596.69920307 435.05530149 C596.7141378 437.70041229 596.71490678 440.34532854 596.71557617 442.99047852 C596.72320212 444.89320194 596.73163037 446.7959223 596.74079895 448.69863892 C596.7627095 453.85796249 596.77153838 459.0172268 596.77662539 464.17659163 C596.78027343 467.40380473 596.78651587 470.63100241 596.79362679 473.85820961 C596.81811059 485.12805485 596.8311706 496.39785414 596.8347168 507.66772461 C596.83834987 518.15429476 596.86823178 528.64057185 596.91012138 539.12705249 C596.94487411 548.14472646 596.96026611 557.16230354 596.96096283 566.180044 C596.96175402 571.55942905 596.97042011 576.93851549 596.99896049 582.31783104 C597.02522606 587.38149634 597.02729899 592.44461725 597.01130486 597.50831985 C597.00949704 599.35935089 597.01612033 601.21041384 597.03212357 603.06137657 C597.14894894 617.45961971 595.30838621 628.56841752 584.86621094 639.35693359 C575.78959942 647.22140621 564.89129688 648.79770588 553.2716074 648.73752213 C552.28496203 648.74042901 551.29831666 648.74333589 550.28177294 648.74633086 C546.97949852 648.75362291 543.67741036 648.74669108 540.37513733 648.73980713 C537.98211158 648.74211187 535.58908654 648.74528848 533.19606298 648.74926162 C527.99508743 648.75587218 522.79414964 648.7562727 517.59317398 648.7511673 C509.85902943 648.74359595 502.12491987 648.74747315 494.39077555 648.75358391 C480.57656591 648.76411236 466.76237478 648.76320378 452.94816339 648.75742609 C440.85847553 648.75239451 428.76879445 648.75108179 416.67910576 648.75347137 C415.87709453 648.75362414 415.0750833 648.75377691 414.2487687 648.75393431 C410.9931135 648.75455699 407.73745829 648.7551938 404.48180309 648.75585384 C373.94159247 648.76197173 343.40139364 648.7564252 312.86118484 648.74566005 C285.73142485 648.73616976 258.60168365 648.73701735 231.47192383 648.74658203 C200.98899483 648.75729297 170.50607624 648.76153694 140.02314562 648.7553575 C136.77312021 648.75471607 133.5230948 648.75409039 130.27306938 648.75347137 C129.47283484 648.75331322 128.67260029 648.75315507 127.84811621 648.75299212 C115.767084 648.75071778 103.68605932 648.75337662 91.60502815 648.75843048 C77.86670934 648.76414899 64.12841192 648.76271938 50.39009578 648.75186899 C42.70253877 648.74599761 35.01502809 648.74561135 27.32747229 648.75316134 C21.58743212 648.75817663 15.84743985 648.75273446 10.10740715 648.74321219 C7.78517248 648.74097671 5.46293162 648.74211777 3.14070094 648.74696377 C-0.01542328 648.75304508 -3.17129577 648.74680707 -6.32740688 648.73752213 C-7.67992327 648.74454562 -7.67992327 648.74454562 -9.05976322 648.75171101 C-20.67135133 648.68343583 -31.05199772 646.31273033 -39.92285156 638.40771484 C-46.26517089 631.67709025 -50.71010469 623.64093615 -50.71962148 614.23142999 C-50.72289367 613.38240998 -50.72616587 612.53338997 -50.72953722 611.65864208 C-50.7280536 610.72893934 -50.72656997 609.7992366 -50.72504139 608.84136105 C-50.72856973 607.35023573 -50.72856973 607.35023573 -50.73216936 605.82898667 C-50.73886857 602.47134304 -50.73840086 599.11373802 -50.73799133 595.75608826 C-50.74128938 593.33509244 -50.74501482 590.91409717 -50.74913281 588.49310261 C-50.75811388 582.52005662 -50.76238153 576.54702317 -50.76465178 570.57397219 C-50.76761283 563.42119785 -50.77630968 556.26843335 -50.78506606 549.11566418 C-50.80591566 531.8258503 -50.81638113 514.53603471 -50.82519567 497.24621119 C-50.82940151 489.0676259 -50.83462359 480.88904135 -50.83988019 472.71045668 C-50.85777098 444.71704228 -50.87276716 416.72362766 -50.88020039 388.7302084 C-50.88067514 386.97258441 -50.88115103 385.21496042 -50.88162805 383.45733643 C-50.88186442 382.58570842 -50.8821008 381.71408041 -50.88234434 380.81603943 C-50.88354554 376.39990194 -50.88476099 371.98376444 -50.88598633 367.56762695 C-50.88622648 366.69122934 -50.88646663 365.81483174 -50.88671406 364.91187662 C-50.89460714 336.49641246 -50.91803885 308.08099004 -50.95054227 279.6655441 C-50.98483975 249.62686442 -51.00455146 219.58820917 -51.00784463 189.54950958 C-51.00826217 186.25192486 -51.00874173 182.95434015 -51.00926781 179.65675545 C-51.009391 178.84479062 -51.00951419 178.03282579 -51.00964112 177.19625597 C-51.01197326 164.12889183 -51.02763404 151.06157616 -51.04810965 137.9942293 C-51.06836514 124.85895936 -51.07384627 111.72374764 -51.06433902 98.58846497 C-51.05912295 90.78555295 -51.06500644 82.98283477 -51.08687369 75.17995065 C-51.10197127 69.35207026 -51.09614167 63.5243324 -51.08220317 57.696445 C-51.07981777 55.33971896 -51.08419866 52.98297432 -51.09603182 50.62627678 C-51.11112919 47.42092223 -51.10149227 44.21653751 -51.08580494 41.01120663 C-51.09602715 40.09789205 -51.10624935 39.18457747 -51.11678132 38.24358669 C-50.99557603 26.88336211 -46.67880143 17.49987787 -38.66113281 9.57958984 C-27.47410724 -0.09124545 -13.97231366 -0.09560908 0 0 Z " fill="#FFFFFF" transform="translate(50.5908203125,2269.51416015625)"/>
<path d="M0 0 C0.98373849 -0.00205263 1.96747698 -0.00410527 2.98102573 -0.0062201 C6.28542475 -0.01188549 9.58978204 -0.01043341 12.89418507 -0.00901413 C15.28405884 -0.01159802 17.67393218 -0.01461125 20.06380492 -0.01801753 C25.94825955 -0.02524141 31.83270576 -0.02779002 37.71716379 -0.02834659 C44.76636987 -0.02926133 51.81556759 -0.03593212 58.86477007 -0.04269341 C75.90058573 -0.05874366 92.93640049 -0.06465539 109.97222236 -0.06944216 C118.0322547 -0.07177888 126.09228633 -0.0753816 134.15231811 -0.07913754 C161.7465819 -0.09197161 189.34084529 -0.10269137 216.935112 -0.10614014 C218.66687961 -0.10636177 220.39864722 -0.10658355 222.13041483 -0.10680549 C223.86634172 -0.10702613 225.60226861 -0.10724661 227.3381955 -0.10746694 C230.82071062 -0.10790949 234.30322574 -0.1083566 237.78574085 -0.10880661 C238.6492003 -0.108916 239.51265975 -0.10902539 240.40228464 -0.1091381 C268.40268734 -0.11276908 296.40306416 -0.12869141 324.40345696 -0.15199697 C354.01251486 -0.17659639 383.62155798 -0.19031301 413.2306264 -0.19150805 C416.48128053 -0.19167951 419.73193465 -0.19189493 422.98258877 -0.19214249 C424.18317782 -0.19222614 424.18317782 -0.19222614 425.40802119 -0.19231148 C438.2843971 -0.19346176 451.16074643 -0.2044817 464.03711337 -0.21902954 C476.98047325 -0.23340018 489.92379908 -0.2366283 502.86716475 -0.22858956 C510.55431662 -0.22413615 518.2413585 -0.22798237 525.9284959 -0.24382807 C531.671868 -0.25473857 537.41514197 -0.24992812 543.15851019 -0.2390562 C545.47949655 -0.23709531 547.80049394 -0.24019567 550.12146481 -0.24890056 C580.60790678 -0.3559921 580.60790678 -0.3559921 593.04770374 10.87752151 C603.48352486 21.67242465 603.84252328 34.1212731 603.74521351 48.21956253 C603.75036038 50.12464945 603.75764743 52.02973159 603.76689625 53.93480301 C603.78531928 59.07741043 603.7725298 64.21949552 603.75280595 69.36208081 C603.73634511 74.76078284 603.74524254 80.15945371 603.7503252 85.55817032 C603.75483748 94.62067828 603.73902907 103.68297926 603.71103382 112.74544144 C603.67897629 123.20315388 603.67900434 133.66049336 603.69624859 144.11823231 C603.71214485 154.20538516 603.70536079 164.29240208 603.68831158 174.37954903 C603.68146279 178.66039489 603.68245113 182.94113109 603.68985653 187.22197533 C603.69755124 192.26764208 603.68528957 197.31288734 603.65800762 202.35848236 C603.65115641 204.2034626 603.65099052 206.04848245 603.65822315 207.89346123 C603.70687086 221.92619579 602.50778098 233.63545686 592.11410999 244.13142776 C582.50121493 252.03267425 573.71604914 253.575905 561.55962086 253.50323868 C560.18429509 253.50581605 558.80897128 253.50971959 557.43365258 253.51482826 C553.66861744 253.52507195 549.90381776 253.5168192 546.13879406 253.50553143 C542.07251552 253.49666 538.00626967 253.50518669 533.93999195 253.51173782 C526.8966996 253.52088641 519.85347244 253.51957142 512.81017971 253.51155281 C502.61266807 253.50030894 492.41524904 253.5093736 482.21774545 253.52411462 C465.65333535 253.54787961 449.0889367 253.5612507 432.52451038 253.56526566 C431.5335791 253.56551052 430.54264781 253.56575539 429.5216883 253.56600768 C418.47117614 253.5685525 407.42066486 253.56912093 396.37015247 253.56807327 C392.36529001 253.56774025 388.36042754 253.56745485 384.35556507 253.56721878 C383.36736058 253.56715599 382.37915608 253.56709321 381.361006 253.56702852 C364.86361401 253.566423 348.36627477 253.58133352 331.86890477 253.60805184 C321.70198652 253.62383174 311.53523887 253.62614135 301.36831888 253.61091781 C294.39644508 253.60143158 287.42467385 253.60624096 280.45281205 253.62213164 C276.43494659 253.63080165 272.41735402 253.63302519 268.39950275 253.61760521 C264.71354349 253.6035725 261.02807587 253.6082514 257.3421426 253.62712622 C255.39364899 253.63238973 253.44513193 253.61812596 251.49669057 253.6029157 C240.32241147 253.6934634 229.71753752 255.69012958 221.04770374 263.15095901 C211.41771892 273.01439802 209.66225345 283.44554961 209.74229908 296.81290054 C209.73972091 298.18980206 209.73581665 299.56670161 209.73070949 300.94359607 C209.72047802 304.70830263 209.72871023 308.4727733 209.74000633 312.23746836 C209.7488856 316.30507347 209.74034878 320.3726461 209.73379993 324.4402504 C209.72465577 331.48407299 209.72596288 338.52783039 209.73398495 345.57165337 C209.74523253 355.76881745 209.73616107 365.96588897 209.72142314 376.16304501 C209.69766434 392.7258279 209.68428789 409.28859936 209.6802721 425.85139847 C209.68002723 426.84202656 209.67978237 427.83265466 209.67953008 428.85330179 C209.67698469 439.90298088 209.67641716 450.9526591 209.67746449 462.00233841 C209.67779751 466.0083402 209.67808291 470.01434199 209.67831898 474.02034378 C209.67841316 475.50310454 209.67841316 475.50310454 209.67850924 477.01582006 C209.67911461 493.5143689 209.6642108 510.01286498 209.63748592 526.51139182 C209.62170203 536.67914711 209.61940058 546.8467318 209.63461994 557.01448884 C209.64410133 563.98494421 209.63930427 570.95529693 209.62340612 577.92574028 C209.6147307 581.94348881 209.61252576 585.96096433 209.62793255 589.97869873 C209.64194879 593.66333241 209.63730665 597.3474738 209.61841153 601.03208133 C209.61313907 602.98226065 209.62742562 604.93246335 209.64262205 606.88259059 C209.54392447 619.03581189 206.73330024 629.28403086 198.11410999 638.13142776 C189.36849625 646.12341146 180.00959777 648.28164906 168.3428545 648.27859879 C167.19736144 648.28411382 167.19736144 648.28411382 166.02872711 648.28974026 C163.4796258 648.30071932 160.93056533 648.30461109 158.38144398 648.30842972 C156.54945721 648.3146988 154.71747169 648.32134599 152.88548756 648.32834244 C146.87706854 648.34933455 140.86864942 648.35974115 134.86020374 648.36970901 C132.78707904 648.37375856 130.71395447 648.37787554 128.64083004 648.3820591 C118.8980965 648.40110109 109.15537048 648.41533351 99.41262192 648.42367107 C88.18865241 648.43343632 76.96488049 648.45974152 65.74098057 648.50017196 C57.05113006 648.53039363 48.361336 648.54514572 39.67143399 648.54845208 C34.48821422 648.55079586 29.30520577 648.55966853 24.12204266 648.58491325 C19.24066637 648.60830472 14.35963889 648.61238292 9.47822094 648.60215187 C7.69533848 648.60165907 5.91243819 648.60790339 4.12960911 648.62170792 C-9.02107164 648.7177649 -21.51010733 648.0680018 -31.95620251 639.03767776 C-39.96925892 631.12194593 -44.28615856 621.74040153 -44.41763234 610.38717067 C-44.40358534 609.0202002 -44.40358534 609.0202002 -44.38925457 607.62561417 C-44.39506833 606.62345371 -44.4008821 605.62129326 -44.40687203 604.58876431 C-44.42141823 601.24555897 -44.40761145 597.903094 -44.39382458 594.55989456 C-44.39843559 592.13285415 -44.40478985 589.70581654 -44.41273355 587.27878475 C-44.42594082 582.00960337 -44.42676623 576.74063828 -44.41654491 571.47146606 C-44.40138676 563.63593774 -44.4091645 555.80054731 -44.42137814 547.96501985 C-44.4424228 533.96912875 -44.44062286 519.97331076 -44.42906249 505.97741273 C-44.41899558 493.7292946 -44.41637565 481.48120324 -44.42115307 469.23308182 C-44.42145861 468.42026242 -44.42176415 467.60744302 -44.42207895 466.76999273 C-44.42332433 463.47039581 -44.42459793 460.1707989 -44.425918 456.871202 C-44.43815076 425.9259131 -44.4270653 394.98067072 -44.40553042 364.03538899 C-44.38654835 336.54947334 -44.38824687 309.06363183 -44.40737438 281.57771683 C-44.42879839 250.68860137 -44.43728318 219.79952701 -44.42492533 188.91040516 C-44.42364248 185.61686135 -44.42239112 182.32331754 -44.42115307 179.02977371 C-44.42083676 178.21883439 -44.42052045 177.40789506 -44.42019456 176.57238182 C-44.41564693 164.33272431 -44.42096155 152.09309653 -44.43107128 139.85344315 C-44.44251063 125.93475061 -44.43964407 112.01614253 -44.41794831 98.09746051 C-44.40620974 90.31007647 -44.40542679 82.52287539 -44.420533 74.73549613 C-44.43056982 68.91944489 -44.41967065 63.10355486 -44.40063471 57.28752196 C-44.39616664 54.93572197 -44.39843944 52.58389748 -44.40813786 50.23211324 C-44.4203167 47.03347521 -44.40781031 43.83582796 -44.38925457 40.63724136 C-44.39861923 39.72592772 -44.4079839 38.81461407 -44.41763234 37.87568486 C-44.2935528 27.16097285 -40.45397716 17.75898908 -32.88589001 10.13142776 C-22.7392062 1.92428706 -12.8080219 -0.02494046 0 0 Z " fill="#FFFFFF" transform="translate(43.88589000701904,-0.13142776489257813)"/>
<path d="M0 0 C0.76689116 -0.00367669 1.53378233 -0.00735338 2.32391262 -0.01114148 C4.88993948 -0.02214154 7.45592579 -0.02601594 10.02197266 -0.02983093 C11.86366402 -0.0360985 13.70535412 -0.04274556 15.54704285 -0.04974365 C21.59336471 -0.07075642 27.63968673 -0.08114533 33.68603516 -0.09111023 C35.77123019 -0.09515921 37.8564251 -0.09927617 39.94161987 -0.10346031 C49.74202194 -0.12250804 59.54241651 -0.1367384 69.34283352 -0.14507228 C80.63586318 -0.15483515 91.92869634 -0.18113167 103.2216568 -0.22157317 C111.96244213 -0.2517948 120.70317133 -0.26654699 129.44400787 -0.26985329 C134.65854112 -0.27219739 139.87286436 -0.28107399 145.08734131 -0.30631447 C149.99907242 -0.32970533 154.91045688 -0.33378436 159.82222939 -0.32355309 C161.61639882 -0.32306024 163.41058597 -0.32930579 165.20470238 -0.34310913 C180.08654235 -0.45111784 192.85182014 0.97459888 203.98681641 11.77217102 C209.82765454 18.03331761 213.42545443 26.0404897 213.44525623 34.64071083 C213.44971408 35.54122409 213.45417192 36.44173736 213.45876485 37.3695389 C213.45858049 38.354931 213.45839613 39.3403231 213.45820618 40.35557556 C213.46188286 41.40549411 213.46555955 42.45541266 213.46934766 43.53714693 C213.48038958 47.06682784 213.48422922 50.59647932 213.48803711 54.12617493 C213.49430138 56.65238031 213.50094814 59.17858476 213.50794983 61.70478821 C213.52717965 69.29388919 213.53777849 76.882985 213.54667762 84.47210413 C213.55106334 88.04815448 213.55642942 91.62420335 213.56166649 95.20025253 C213.57867735 107.091713 213.59317071 118.98317256 213.60041523 130.87464333 C213.60232505 133.95946377 213.60424539 137.0442842 213.60620117 140.12910461 C213.60668491 140.89579811 213.60716865 141.66249162 213.60766705 142.45241825 C213.61596437 154.8676518 213.64129684 167.28278891 213.67378185 179.69798036 C213.70687931 192.45147717 213.72486643 205.20492501 213.72805947 217.95846498 C213.73022212 225.11623197 213.73893464 232.27385834 213.76452065 239.4315834 C213.78854194 246.16703646 213.79203651 252.90219306 213.78175926 259.63769531 C213.78126367 262.10716976 213.78759093 264.57665663 213.80131531 267.04609299 C213.81903174 270.42331911 213.81192828 273.79963745 213.79878235 277.17686462 C213.80975159 278.14887239 213.82072084 279.12088016 213.83202249 280.12234271 C213.73933357 290.01849931 210.32124443 298.9753421 203.37353516 306.14717102 C195.05127799 314.00708057 186.96708581 317.30112153 175.60824585 317.28761292 C174.82784176 317.29058404 174.04743766 317.29355516 173.24338496 317.29661632 C170.62578746 317.3052946 168.00823575 317.30681084 165.390625 317.30830383 C163.51465762 317.31293271 161.63869118 317.31795746 159.76272583 317.323349 C154.66328069 317.33647035 149.56384871 317.34291772 144.46438932 317.34735966 C141.27691312 317.35029148 138.0894405 317.35439655 134.90196609 317.35886383 C124.92483168 317.37253953 114.94770548 317.38220521 104.97056234 317.38606572 C93.46188751 317.39054347 81.95333163 317.40807796 70.44469297 317.43706632 C61.5443149 317.45870474 52.64397024 317.4687712 43.74356616 317.47010684 C38.43022821 317.47115353 33.11700206 317.47703229 27.80369186 317.49492645 C22.80174051 317.51144391 17.79998455 317.51354478 12.79801559 317.50478745 C10.96711706 317.50401898 9.13620787 317.50833461 7.305336 317.5182457 C-6.85610813 317.59037905 -18.70541718 316.67053696 -29.44287109 306.48310852 C-37.83554855 297.27009417 -39.99773715 286.78681741 -39.94966125 274.64756775 C-39.9534868 273.61464926 -39.95731235 272.58173077 -39.96125382 271.51751173 C-39.97154174 268.06930546 -39.96759963 264.62126703 -39.96362305 261.17304993 C-39.96797184 258.69551439 -39.97315555 256.2179802 -39.97911072 253.740448 C-39.99110482 247.71695456 -39.99365429 241.69352664 -39.99131045 235.67002727 C-39.98952453 230.77184333 -39.99128281 225.8736729 -39.9955349 220.97549057 C-39.99613009 220.27729532 -39.99672527 219.57910008 -39.9973385 218.8597474 C-39.9985503 217.44117599 -39.99976444 216.02260457 -40.00098088 214.60403316 C-40.01184757 201.3122019 -40.00969807 188.02039604 -40.00359603 174.72856335 C-39.99842781 162.5819591 -40.00968136 150.43543507 -40.02869425 138.28884669 C-40.04808932 125.80190052 -40.05632572 113.31499227 -40.052571 100.82803094 C-40.05066146 93.82349976 -40.0531223 86.81903684 -40.06728554 79.81451797 C-40.08047176 73.22679236 -40.07791667 66.63920054 -40.06487465 60.05146599 C-40.06251001 57.6368231 -40.06523948 55.22216891 -40.07349777 52.80753899 C-40.08397613 49.50508771 -40.07585529 46.20317382 -40.06318665 42.90074158 C-40.07056093 41.95091703 -40.07793522 41.00109248 -40.08553296 40.02248538 C-39.99648636 28.94778156 -36.66539127 18.03355713 -28.61474609 10.10420227 C-19.86234944 2.94037325 -11.22791137 -0.00290749 0 0 Z " fill="#FFFFFF" transform="translate(1897.68896484375,2030.8528289794922)"/>
<path d="M0 0 C1.83891946 -0.00271304 3.67783782 -0.00627573 5.51675415 -0.01062012 C10.49190073 -0.01970909 15.46696401 -0.01621429 20.44211197 -0.00986195 C25.65891996 -0.00478385 30.87572101 -0.00949842 36.0925293 -0.01263428 C44.85173823 -0.01626865 53.61091339 -0.0114887 62.37011719 -0.00195312 C72.48405635 0.00893039 82.59791486 0.00540444 92.71185207 -0.00560594 C101.40934913 -0.01469387 110.10682197 -0.01595672 118.80432224 -0.0107286 C123.99288313 -0.00761719 129.18140617 -0.00717675 134.3699646 -0.01380157 C139.24884169 -0.01959632 144.12761522 -0.01553924 149.00648117 -0.00401306 C150.7926453 -0.00137785 152.5788182 -0.00211202 154.36497879 -0.00653839 C168.85785088 -0.03913137 180.98751601 0.61373035 192.11328125 10.94628906 C201.61295101 21.05151546 203.18262624 33.42212904 203.11724854 46.80198669 C203.12192851 48.30409001 203.12192851 48.30409001 203.12670302 49.83653885 C203.13461964 53.16021184 203.12838421 56.48369901 203.12207031 59.80737305 C203.124783 62.20328884 203.1283455 64.5992038 203.13269043 66.99511719 C203.14084136 72.80831413 203.13967871 78.62145299 203.13386515 84.43465167 C203.12933377 89.16302813 203.12874212 93.89139013 203.13091278 98.61976814 C203.13121925 99.29477658 203.13152571 99.96978502 203.13184147 100.66524826 C203.13248097 102.03686762 203.1331294 103.40848697 203.13378665 104.78010631 C203.13947935 117.61896619 203.13294895 130.45779744 203.12218592 143.29665262 C203.1132534 154.29193965 203.11480203 165.28718444 203.12402344 176.2824707 C203.13474836 189.0763298 203.13892799 201.87016383 203.13279891 214.6640268 C203.13216187 216.0306826 203.13153313 217.39733841 203.13091278 218.76399422 C203.13044995 219.77240462 203.13044995 219.77240462 203.12997778 220.80118696 C203.12825734 225.51854586 203.13115188 230.23588875 203.13587189 234.95324516 C203.14166781 241.31364957 203.13760735 247.67397455 203.12608337 254.03437042 C203.12344869 256.36270834 203.12418142 258.691053 203.1286087 261.0193882 C203.18837103 295.65358361 203.18837103 295.65358361 190.86328125 308.25878906 C179.39495453 317.56112962 167.41731945 317.69862136 153.26171875 317.64697266 C151.38486425 317.65104301 149.50801215 317.65638748 147.63116455 317.66290283 C142.55680667 317.67652708 137.4826327 317.67129802 132.40827179 317.66176558 C127.08516462 317.65414358 121.76207267 317.66122163 116.43896484 317.66592407 C107.501599 317.67137423 98.56430765 317.66420942 89.62695312 317.64990234 C79.3101905 317.63357729 68.99360577 317.63886631 58.67684746 317.65538156 C49.80181295 317.66901749 40.92683184 317.67090578 32.05179024 317.66306555 C26.75867931 317.65840063 21.46565187 317.65773165 16.17254639 317.66767502 C11.1951138 317.67637309 6.21790946 317.67027099 1.2405014 317.65299225 C-0.58071769 317.64904256 -2.40195616 317.6501353 -4.22316742 317.65678024 C-18.76263099 317.70491822 -30.05208991 316.59766306 -41.13671875 306.25878906 C-48.12349241 297.41889263 -50.43877567 289.77952327 -50.40414429 278.69598389 C-50.4086754 277.63210583 -50.41320651 276.56822777 -50.41787493 275.47211099 C-50.43053535 271.90714442 -50.42889747 268.34233031 -50.42724609 264.77734375 C-50.43323033 262.22128604 -50.44003564 259.66523015 -50.44760132 257.10917664 C-50.46344333 250.88622436 -50.46971021 244.66332791 -50.47082607 238.44035736 C-50.47177733 233.38003511 -50.4758915 228.31972534 -50.48222733 223.25940704 C-50.4998364 208.90241132 -50.50906682 194.54544546 -50.50756638 180.18843886 C-50.50748647 179.41485267 -50.50740655 178.64126648 -50.50732422 177.84423828 C-50.50724246 177.06970394 -50.5071607 176.2951696 -50.50707646 175.49716452 C-50.50626385 162.94948889 -50.52539604 150.40193338 -50.55360095 137.85429248 C-50.58235424 124.9606042 -50.59613988 112.06697445 -50.5944134 99.1732533 C-50.5937503 91.93839523 -50.59920732 84.70366306 -50.6207695 77.46883392 C-50.6409243 70.66275635 -50.64028265 63.85698835 -50.62573624 57.05088234 C-50.62364582 54.55560989 -50.62836279 52.06032085 -50.64045715 49.56507683 C-50.65592198 46.15291613 -50.64659211 42.74167019 -50.63119507 39.32952881 C-50.64148219 38.34721244 -50.65176932 37.36489606 -50.66236818 36.35281253 C-50.55715935 25.76767413 -46.90538933 18.11104232 -39.62890625 10.52441406 C-27.85638516 -0.17787784 -15.0349831 -0.03725894 0 0 Z " fill="#FFFFFF" transform="translate(2310.13671875,2030.7412109375)"/>
<path d="M0 0 C0.7664843 -0.00226556 1.5329686 -0.00453111 2.3226797 -0.00686532 C4.88112548 -0.01317585 7.43951789 -0.01237786 9.99797058 -0.0115509 C11.83644682 -0.01454424 13.67492243 -0.01794717 15.51339722 -0.02172852 C20.50109382 -0.03055509 25.48877325 -0.03290607 30.47647691 -0.0335443 C33.5946071 -0.03425558 36.71273294 -0.03639138 39.83086205 -0.03904152 C50.7146927 -0.04829059 61.59851112 -0.05237697 72.48234558 -0.05158997 C82.6183703 -0.05098933 92.75434178 -0.06153953 102.89035302 -0.07733363 C111.60052389 -0.09042101 120.31067737 -0.09577336 129.02085799 -0.09513456 C134.21952956 -0.09487992 139.41815381 -0.09771238 144.61681557 -0.10831261 C149.507956 -0.11801369 154.39900404 -0.11805897 159.29014778 -0.11079597 C161.08115016 -0.10975263 162.87215835 -0.11209815 164.66315079 -0.11815643 C179.60527545 -0.16541036 191.49282618 0.81192259 203.014328 11.38371277 C208.73256168 17.4534218 212.31697436 25.30925229 212.33604908 33.65848732 C212.34050692 34.56596738 212.34496477 35.47344743 212.3495577 36.40842688 C212.34937334 37.40160087 212.34918897 38.39477487 212.34899902 39.41804504 C212.35267571 40.4761307 212.3563524 41.53421635 212.3601405 42.62436521 C212.37118288 46.18168516 212.37502214 49.7389759 212.37882996 53.29631042 C212.38509419 55.84221998 212.39174095 58.38812862 212.39874268 60.93403625 C212.41797284 68.58246297 212.42857138 76.23088455 212.43747047 83.87932926 C212.44185611 87.48327315 212.44722222 91.08721557 212.45245934 94.69115829 C212.46947022 106.67526507 212.48396361 118.65937094 212.49120808 130.64348793 C212.49311789 133.75237148 212.49503824 136.86125503 212.49699402 139.97013855 C212.49747776 140.74281328 212.4979615 141.51548801 212.4984599 142.31157713 C212.5067573 154.82380821 212.53208992 167.33594361 212.5645747 179.84813292 C212.59767143 192.70107081 212.61565921 205.5539601 212.61885232 218.40694082 C212.62101503 225.62059869 212.62972853 232.83411703 212.65531349 240.04773331 C212.67933357 246.83571538 212.68282981 253.62340329 212.67255211 260.41143417 C212.67205649 262.90025924 212.67838455 265.38909663 212.69210815 267.87788391 C212.70982269 271.28138213 212.70272203 274.6839794 212.6895752 278.08747864 C212.70054444 279.0672683 212.71151369 280.04705796 212.72281533 281.05653822 C212.62349307 291.74155928 208.61789676 300.48314382 201.201828 308.13371277 C190.05665562 317.62161045 177.56724492 317.57618052 163.63200378 317.5377655 C161.75839329 317.54347519 159.88478628 317.55044176 158.01118469 317.55856323 C152.94496647 317.57644427 147.87892193 317.57533569 142.81268167 317.56962085 C138.57332844 317.56652145 134.33400821 317.57262984 130.09465969 317.57865959 C120.08819936 317.59268683 110.08182445 317.59115873 100.07536316 317.57975769 C89.77450784 317.56828011 79.473913 317.58235029 69.17309201 317.60915416 C60.30821409 317.63135238 51.4434177 317.6379392 42.57851398 317.63207775 C37.29313026 317.62871662 32.00791344 317.63106699 26.72255325 317.64832878 C21.74999037 317.66386146 16.77781158 317.6597725 11.80526352 317.64102364 C9.98810649 317.63735511 8.1709206 317.64039512 6.35379028 317.65090942 C-7.2537498 317.72358941 -18.85245776 316.67897456 -29.6028595 307.41496277 C-39.29202262 297.34650856 -40.95422058 285.43004114 -40.93188477 272.02684021 C-40.93415032 271.02406658 -40.93641588 270.02129295 -40.93875009 268.98813224 C-40.94506821 265.63593115 -40.94426212 262.28377071 -40.94343567 258.93156433 C-40.94642853 256.52476448 -40.94983136 254.11796512 -40.95361328 251.71116638 C-40.96152781 245.85633112 -40.96466739 240.00150536 -40.96522566 234.14666584 C-40.96570162 229.38481649 -40.96776039 224.62297044 -40.97092628 219.86112213 C-40.97972871 206.3451678 -40.98434635 192.82922138 -40.98359581 179.31326416 C-40.98355585 178.58531103 -40.9835159 177.8573579 -40.98347473 177.10734558 C-40.98343385 176.37849827 -40.98339297 175.64965096 -40.98335085 174.89871737 C-40.98294458 163.09223606 -40.99251045 151.28578668 -41.0066131 139.4793146 C-41.02099644 127.3415744 -41.02788219 115.20384976 -41.02701932 103.06610084 C-41.02668801 96.2577147 -41.02940611 89.44936202 -41.04019737 82.64098358 C-41.04989356 76.23549927 -41.04994704 69.83008552 -41.04268074 63.42459869 C-41.04163678 61.0781036 -41.04398658 58.73160409 -41.0500412 56.38511658 C-41.05779075 53.1728354 -41.05309664 49.96079609 -41.04541016 46.7485199 C-41.05055372 45.82816271 -41.05569728 44.90780552 -41.06099671 43.95955873 C-40.99342256 31.10976252 -38.58361318 19.9648924 -29.673172 10.32121277 C-21.10751052 2.24174911 -11.48953015 -0.02513513 0 0 Z " fill="#FFFFFF" transform="translate(1095.7981719970703,2030.8662872314453)"/>
</svg>
